<?xml version="1.0" standalone="no"?>
        <!DOCTYPE svg PUBLIC "-//W3C//DTD SVG 1.1//EN" 
        "http://www.w3.org/Graphics/SVG/1.1/DTD/svg11.dtd"><svg id="changeColor" fill="#c3c7d6" xmlns="http://www.w3.org/2000/svg" xmlns:xlink="http://www.w3.org/1999/xlink" width="200" zoomAndPan="magnify" viewBox="0 0 375 374.9999" height="200" preserveAspectRatio="xMidYMid meet" version="1.0"><defs><path id="pathAttribute" d="M 7.09375 7.09375 L 367.84375 7.09375 L 367.84375 367.84375 L 7.09375 367.84375 Z M 7.09375 7.09375 " fill="#c3c7d6"></path></defs><g><path id="pathAttribute" d="M 187.46875 7.09375 C 87.851562 7.09375 7.09375 87.851562 7.09375 187.46875 C 7.09375 287.085938 87.851562 367.84375 187.46875 367.84375 C 287.085938 367.84375 367.84375 287.085938 367.84375 187.46875 C 367.84375 87.851562 287.085938 7.09375 187.46875 7.09375 " fill-opacity="1" fill-rule="nonzero" fill="#c3c7d6"></path></g><g id="inner-icon" transform="translate(85, 75)"> <svg xmlns="http://www.w3.org/2000/svg" width="199.8" height="199.8" viewBox="0 0 512 512" id="IconChangeColor"><title>ionicons-v5_logos</title><path d="M508.64,148.79c0-45-33.1-81.2-74-81.2C379.24,65,322.74,64,265,64H247c-57.6,0-114.2,1-169.6,3.6-40.8,0-73.9,36.4-73.9,81.4C1,184.59-.06,220.19,0,255.79q-.15,53.4,3.4,106.9c0,45,33.1,81.5,73.9,81.5,58.2,2.7,117.9,3.9,178.6,3.8q91.2.3,178.6-3.8c40.9,0,74-36.5,74-81.5,2.4-35.7,3.5-71.3,3.4-107Q512.24,202.29,508.64,148.79ZM207,353.89V157.39l145,98.2Z" id="mainIconPathAttribute" fill="#000000"></path></svg> </g></svg>
