<?xml version="1.0" encoding="UTF-8"?>
<svg width="32px" height="32px" viewBox="0 0 32 32" version="1.1" xmlns="http://www.w3.org/2000/svg" xmlns:xlink="http://www.w3.org/1999/xlink">
    <title>soacial_bluesky</title>
    <g id="soacial_bluesky" stroke="none" stroke-width="1" fill="none" fill-rule="evenodd">
        <g id="social_mastodon" transform="translate(0, -0)" fill="#C3C7D6" fill-rule="nonzero">
            <path d="M17.5162435,2.56233116e-05 C25.7318914,0.773813858 31.9582137,7.68184625 31.9996577,15.8715059 L31.9996577,16.1156697 C31.9647983,24.3110151 25.736236,31.2259462 17.5162435,32.0001436 L16.9665879,31.9726171 C16.6442989,31.9914754 16.3195274,32.0007231 15.9925619,32.0001436 C15.1201688,32.000962 14.2628307,31.9313094 13.4262094,31.7962756 L12.8972716,31.7695811 C5.3698767,30.2855627 0.0371394955,23.6775979 0,16.1288181 L0,15.8713512 C0.0371394955,8.32257133 5.3698767,1.71460659 12.8972716,0.230588202 L13.4242103,0.204216466 C14.261465,0.0689709094 15.1194739,-0.000793430024 15.9925619,2.56233116e-05 C16.3191886,-0.000553138667 16.6436258,0.00867473327 16.965586,0.0274935911 L17.5162435,2.56233116e-05 Z M26,9.08557269 C26,5.9596151 23.3193261,6.9419864 21.664853,8.21162139 C19.371832,9.97115552 16.9056395,13.5390057 16.0000586,15.453486 C15.0945467,13.5388647 12.6282163,9.97119076 10.3352642,8.21162139 C8.68074291,6.9419864 6,5.9596151 6,9.08557269 C6,9.70979843 6.35016346,14.3299149 6.55554847,15.0800432 C7.26933739,17.6877595 9.87077041,18.3528754 12.1848258,17.9503185 C8.13995297,18.6538502 7.11102797,20.9848099 9.33322184,23.3156287 C13.5537833,27.7424502 15.3992552,22.204958 15.872149,20.7860869 C15.9588382,20.5259737 15.9994,20.404287 16,20.5077619 C16.0005965,20.4042906 16.0411618,20.525974 16.127851,20.7860869 C16.6009516,22.204958 18.4464581,27.7423092 22.6667782,23.3156287 C24.8889375,20.9848099 23.8599781,18.6539912 19.8151742,17.9503185 C22.1291606,18.3528754 24.7305592,17.687763 25.4444515,15.0800432 C25.6498296,14.3299854 26,9.70986893 26,9.08557269 Z" id="Combined-Shape"></path>
        </g>
    </g>
</svg>