<?xml version="1.0" encoding="UTF-8"?>
<svg width="32px" height="32px" viewBox="0 0 32 32" version="1.1" xmlns="http://www.w3.org/2000/svg" xmlns:xlink="http://www.w3.org/1999/xlink">
    <title>social_linkedin</title>
    <g id="social_linkedin" stroke="none" stroke-width="1" fill="none" fill-rule="evenodd">
        <path d="M16,0 C24.836556,0 32,7.163444 32,16 C32,24.836556 24.836556,32 16,32 C7.163444,32 0,24.836556 0,16 C0,7.163444 7.163444,0 16,0 Z M12.03128,11.6414603 L8.29664,11.6414603 L8.29664,22.9993187 L12.03128,22.9993187 L12.03128,11.6414603 Z M21.5252,11.3601026 C19.71152,11.3601026 18.494,12.3002324 17.9936,13.1926745 L17.9432,13.1926745 L17.9432,11.6414603 L14.36696,11.6414603 L14.36696,22.9993187 L18.09512,22.9993187 L18.09512,17.3789773 C18.09512,15.8965697 18.39248,14.4625311 20.33432,14.4625311 C22.180112,14.4625311 22.2678776,16.0463758 22.2716778,17.341483 L22.27184,22.9993187 L26,22.9993187 L26,16.773343 C26,13.7138335 25.298,11.3601026 21.5252,11.3601026 Z M10.16144,6 C8.96787429,6.00037601 8.00039739,6.91578855 8,8.04512303 C8.00039739,9.1744575 8.96787429,10.08987 10.16144,10.0902479 C10.7349239,10.0909705 11.2851396,9.87573547 11.6906543,9.49204335 C12.0961691,9.10835122 12.3236457,8.58774515 12.3228819,8.04512303 C12.3205032,6.91656559 11.3541845,6.00224888 10.16144,6 Z" id="Combined-Shape" fill="#C3C7D6"></path>
    </g>
</svg>