<?xml version="1.0" encoding="UTF-8"?>
<svg width="32px" height="32px" viewBox="0 0 32 32" version="1.1" xmlns="http://www.w3.org/2000/svg" xmlns:xlink="http://www.w3.org/1999/xlink">
    <title>social_tw</title>
    <g id="Page-1" stroke="none" stroke-width="1" fill="none" fill-rule="evenodd">
        <g id="social_tw" fill="#C3C7D6" fill-rule="nonzero">
            <path d="M16,0 C24.836556,0 32,7.163444 32,16 C32,24.836556 24.836556,32 16,32 C7.163444,32 0,24.836556 0,16 C0,7.163444 7.163444,0 16,0 Z M12.9523533,6.5 L6.05520083,6.5 L6.64418842,7.29713142 L13.735,16.894 L6.63103017,24.6625667 L5.86517369,25.5 L8.88169495,25.5 L9.03036712,25.3374299 L15.083,18.718 L19.9440775,25.2971355 L20.0939741,25.5 L26.9911321,25.5 L26.4021333,24.7028656 L18.897,14.547 L25.4916687,7.33742833 L26.2574997,6.5 L23.2409944,6.5 L23.0923216,6.66257621 L17.55,12.723 L13.1022496,6.7028689 L12.9523533,6.5 Z M11.834,8.738 L22.565,23.261 L21.212,23.261 L10.48,8.738 L11.834,8.738 Z" id="Combined-Shape"></path>
        </g>
    </g>
</svg>