<?xml version="1.0" encoding="UTF-8"?>
<svg width="32px" height="32px" viewBox="0 0 32 32" version="1.1" xmlns="http://www.w3.org/2000/svg" xmlns:xlink="http://www.w3.org/1999/xlink">
    <title>social_mastodon</title>
    <g id="social_mastodon" stroke="none" stroke-width="1" fill="none" fill-rule="evenodd">
        <path d="M17.5164387,-0.000124219667 C25.7320866,0.773635923 31.9584089,7.68166832 31.9998529,15.871328 L31.9998529,16.1154918 C31.9649935,24.3108372 25.7364312,31.2257683 17.5164387,31.9999376 L16.9667831,31.9724392 C16.6444941,31.9912975 16.3197226,32.0005452 15.9927571,31.9999376 C15.120364,32.0007841 14.2630259,31.9311315 13.4264046,31.7960977 L12.8974668,31.7694032 C5.37007192,30.2853848 0.0373347142,23.67742 0.000195218682,16.1286402 L0.000195218682,15.8711733 C0.0373347142,8.3223934 5.37007192,1.71442866 12.8974668,0.230410267 L13.4244055,0.204038531 C14.2616602,0.0687929747 15.1196691,-0.000971364682 15.9927571,-0.000124219667 C16.3193838,-0.000731073325 16.643821,0.00849679861 16.9657812,0.0273156564 L17.5164387,-0.000124219667 Z M15.5339233,6 L15.469943,6 C12.8658476,6.02090429 10.36096,6.29772454 8.90115652,6.95599425 C8.90115652,6.95599425 6.00602226,8.22770798 6.00602226,12.5663185 C6.00602226,13.5598112 5.9862685,14.7476922 6.0183135,16.0074453 C6.12344744,20.2503702 6.81054936,24.431983 10.8058588,25.4703014 C12.6480074,25.9490528 14.2296258,26.0492641 15.5034147,25.980517 C17.8133984,25.8547679 19.1101236,25.1710683 19.1101236,25.1710683 L19.0339618,23.5254479 C19.0339618,23.5254479 17.3832052,24.0365255 15.5293141,23.9742436 C13.6925428,23.9123928 11.753491,23.7797475 11.4564162,21.5655088 C11.4289804,21.3710127 11.4152625,21.1630473 11.4152625,20.9446297 C11.4152625,20.9446297 13.2183426,21.3773701 15.5034147,21.4801675 C16.9006646,21.5430959 18.2109979,21.399783 19.5418532,21.2438628 C22.0940401,20.9446297 24.3162293,19.4006214 24.5955256,17.9897972 C24.9530825,16.1840744 24.9961443,13.7323078 24.9997221,12.8763778 L24.9992707,12.5663185 C24.9992707,8.22770798 22.1042462,6.95599425 22.1042462,6.95599425 C20.6445524,6.29772454 18.1380187,6.02090429 15.5339233,6 Z M18.4773445,9.39000821 C19.4147706,9.39000821 20.170023,9.71359373 20.746833,10.3448172 C21.3059744,10.9760406 21.5843928,11.8292375 21.5843928,12.9028992 L21.5843928,18.1562341 L19.4647037,18.1562341 L19.4647037,13.0573108 C19.4647037,11.9824638 19.0041117,11.4369048 18.0828179,11.4369048 C17.0641819,11.4369048 16.5536567,12.0840759 16.5536567,13.3637634 L16.5536567,16.154702 L14.4464783,16.154702 L14.4464783,13.3637634 C14.4464783,12.0840759 13.9358434,11.4369048 12.9172074,11.4369048 C11.9959136,11.4369048 11.5353216,11.9824638 11.5353216,13.0573108 L11.5353216,18.1562341 L9.41563245,18.1562341 L9.41563245,12.9028992 C9.41563245,11.8292375 9.69405084,10.9760406 10.253302,10.3448172 C10.8300023,9.71359373 11.5852547,9.39000821 12.5227905,9.39000821 C13.6074919,9.39000821 14.4289194,9.79936598 14.9720383,10.6181893 L15.5000126,11.487226 L16.0280967,10.6181893 C16.5711059,9.79936598 17.3925334,9.39000821 18.4773445,9.39000821 Z" id="Combined-Shape" fill="#C3C7D6" fill-rule="nonzero"></path>
    </g>
</svg>