<svg xmlns="http://www.w3.org/2000/svg" width="32" height="32" viewBox="0 0 32 32">
  <path id="Path_202" data-name="Path 202" d="M704,1440a16,16,0,1,0,16,16A16,16,0,0,0,704,1440Zm-7.095,25.667a2.184,2.184,0,0,1-2.191-2.188,2.178,2.178,0,1,1,2.191,2.188Zm4.386-1.558a5.246,5.246,0,0,0-5.244-5.236v-2.933a8.183,8.183,0,0,1,8.18,8.169Zm5.1,0a10.352,10.352,0,0,0-10.347-10.333v-2.933a13.291,13.291,0,0,1,13.284,13.266Zm4.957,0a15.311,15.311,0,0,0-15.3-15.284v-2.932a18.248,18.248,0,0,1,18.24,18.216Z" transform="translate(-688 -1440.001)" fill="#c3c7d6"/>
</svg>
