<?xml version="1.0" encoding="UTF-8"?>
<!DOCTYPE svg PUBLIC "-//W3C//DTD SVG 1.1//EN" "http://www.w3.org/Graphics/SVG/1.1/DTD/svg11.dtd">
<svg xmlns="http://www.w3.org/2000/svg" version="1.1" width="60px" height="60px" style="shape-rendering:geometricPrecision; text-rendering:geometricPrecision; image-rendering:optimizeQuality; fill-rule:evenodd; clip-rule:evenodd" xmlns:xlink="http://www.w3.org/1999/xlink">
<g><path style="opacity:0.412" fill="#777777" d="M 44.5,1.5 C 42.8333,2.83333 41.1667,2.83333 39.5,1.5C 41.2341,0.437952 42.9008,0.437952 44.5,1.5 Z"/></g>
<g><path style="opacity:0.961" fill="#e0e0e0" d="M 23.5,3.5 C 31.6841,3.17428 39.6841,3.50761 47.5,4.5C 45.9724,5.30921 44.3057,5.97588 42.5,6.5C 39.3132,5.19438 35.9798,5.19438 32.5,6.5C 29.4275,8.56913 27.0941,11.2358 25.5,14.5C 25.5,13.8333 25.1667,13.5 24.5,13.5C 23.8665,10.3567 22.1998,7.85673 19.5,6C 20.8584,5.06564 22.1917,4.2323 23.5,3.5 Z"/></g>
<g><path style="opacity:0.376" fill="#afafaf" d="M 47.5,4.5 C 48.1667,4.5 48.8333,4.5 49.5,4.5C 50.7387,5.21199 51.2387,6.21199 51,7.5C 49.7365,9.60703 47.9032,10.607 45.5,10.5C 44.5,9.16667 43.5,7.83333 42.5,6.5C 44.3057,5.97588 45.9724,5.30921 47.5,4.5 Z"/></g>
<g><path style="opacity:0.233" fill="#676767" d="M 49.5,4.5 C 51.3904,4.2965 52.8904,4.96317 54,6.5C 54.7901,9.63396 54.4568,12.634 53,15.5C 51.9505,16.5171 50.7839,16.6838 49.5,16C 48.035,14.2258 46.7017,12.3925 45.5,10.5C 47.9032,10.607 49.7365,9.60703 51,7.5C 51.2387,6.21199 50.7387,5.21199 49.5,4.5 Z"/></g>
<g><path style="opacity:0.326" fill="#222222" d="M 18.5,7.5 C 20.6068,10.8468 22.6068,14.1801 24.5,17.5C 23.5081,19.0265 22.0081,19.6932 20,19.5C 15.7786,18.4593 11.6119,18.2926 7.5,19C 10.0439,16.9074 13.0439,15.9074 16.5,16C 15.1335,13.8414 15.4668,11.6748 17.5,9.5C 17.8333,8.83333 18.1667,8.16667 18.5,7.5 Z"/></g>
<g><path style="opacity:0.292" fill="#484848" d="M 5.5,9.5 C 5.26269,10.791 5.59603,11.791 6.5,12.5C 7.49612,13.6651 8.82946,14.3318 10.5,14.5C 12.568,12.4275 14.9013,10.7608 17.5,9.5C 15.4668,11.6748 15.1335,13.8414 16.5,16C 13.0439,15.9074 10.0439,16.9074 7.5,19C 11.6119,18.2926 15.7786,18.4593 20,19.5C 22.0081,19.6932 23.5081,19.0265 24.5,17.5C 24.5,16.1667 24.5,14.8333 24.5,13.5C 25.1667,13.5 25.5,13.8333 25.5,14.5C 25.7394,16.4672 25.4061,18.3005 24.5,20C 25.7932,20.49 27.1266,20.6567 28.5,20.5C 29.5,20.5 30.5,20.5 31.5,20.5C 35.3946,17.027 39.0613,13.3604 42.5,9.5C 44.9416,12.729 47.6082,15.729 50.5,18.5C 49.8333,18.5 49.5,18.8333 49.5,19.5C 43.3583,15.7492 40.525,17.4159 41,24.5C 41.9947,25.0659 42.828,25.7326 43.5,26.5C 41.2151,26.7046 39.8818,27.3713 39.5,28.5C 36.3133,29.7308 32.98,30.8974 29.5,32C 28.7476,32.6708 28.4142,33.5041 28.5,34.5C 27.7281,33.3065 26.7281,32.3065 25.5,31.5C 25.8379,25.1662 22.8379,21.4995 16.5,20.5C 13.7819,20.6946 11.4486,21.6946 9.5,23.5C 6.73267,20.6323 5.066,17.2989 4.5,13.5C 4.23219,11.901 4.56552,10.5676 5.5,9.5 Z"/></g>
<g><path style="opacity:0.655" fill="#c0c0c0" d="M 42.5,6.5 C 40.3023,6.40879 39.9689,7.07546 41.5,8.5C 35.2335,10.4342 30.9001,14.4342 28.5,20.5C 27.1266,20.6567 25.7932,20.49 24.5,20C 25.4061,18.3005 25.7394,16.4672 25.5,14.5C 27.0941,11.2358 29.4275,8.56913 32.5,6.5C 35.9798,5.19438 39.3132,5.19438 42.5,6.5 Z"/></g>
<g><path style="opacity:0.518" fill="#969696" d="M 41.5,8.5 C 42.1667,8.5 42.5,8.83333 42.5,9.5C 37.1667,11.5 33.5,15.1667 31.5,20.5C 30.5,20.5 29.5,20.5 28.5,20.5C 30.9001,14.4342 35.2335,10.4342 41.5,8.5 Z"/></g>
<g><path style="opacity:0.416" fill="#6f6f6f" d="M 42.5,9.5 C 39.0613,13.3604 35.3946,17.027 31.5,20.5C 33.5,15.1667 37.1667,11.5 42.5,9.5 Z"/></g>
<g><path style="opacity:0.985" fill="#060606" d="M 49.5,19.5 C 49.9803,24.0168 47.9803,26.3502 43.5,26.5C 42.828,25.7326 41.9947,25.0659 41,24.5C 40.525,17.4159 43.3583,15.7492 49.5,19.5 Z"/></g>
<g><path style="opacity:0.99" fill="#0a0a0a" d="M 25.5,31.5 C 21.8801,38.9627 16.7135,40.296 10,35.5C 6.96984,31.5562 6.80318,27.5562 9.5,23.5C 11.4486,21.6946 13.7819,20.6946 16.5,20.5C 22.8379,21.4995 25.8379,25.1662 25.5,31.5 Z"/></g>
<g><path style="opacity:0.232" fill="#6d6d6d" d="M 50.5,18.5 C 53.142,18.4877 54.4754,19.821 54.5,22.5C 51.0099,27.6872 46.8432,32.3539 42,36.5C 41.7216,35.5842 41.2216,34.9175 40.5,34.5C 41.6298,32.6854 42.2964,30.6854 42.5,28.5C 41.5,28.5 40.5,28.5 39.5,28.5C 39.8818,27.3713 41.2151,26.7046 43.5,26.5C 47.9803,26.3502 49.9803,24.0168 49.5,19.5C 49.5,18.8333 49.8333,18.5 50.5,18.5 Z"/></g>
<g><path style="opacity:0.24" fill="#606060" d="M 16.5,25.5 C 22.704,25.3137 24.0374,27.8137 20.5,33C 15.6325,32.7108 14.2991,30.2108 16.5,25.5 Z"/></g>
<g><path style="opacity:0.982" fill="#0f0f0f" d="M 39.5,28.5 C 40.5,28.5 41.5,28.5 42.5,28.5C 42.2964,30.6854 41.6298,32.6854 40.5,34.5C 37.4844,37.4784 38.1511,39.1451 42.5,39.5C 43.5,39.3333 44.5,39.1667 45.5,39C 46.8502,37.2817 48.0168,35.4484 49,33.5C 50.271,37.1661 49.1044,39.6661 45.5,41C 43.1009,41.711 40.7676,41.5443 38.5,40.5C 37.5748,41.3569 36.9081,42.3569 36.5,43.5C 32.796,46.017 29.1293,46.017 25.5,43.5C 24.4376,42.4246 24.4376,41.4246 25.5,40.5C 29.5178,44.5836 33.1845,44.2502 36.5,39.5C 34.178,37.336 31.5113,35.6693 28.5,34.5C 28.4142,33.5041 28.7476,32.6708 29.5,32C 32.98,30.8974 36.3133,29.7308 39.5,28.5 Z"/></g>
<g><path style="opacity:0.529" fill="#080808" d="M 39.5,1.5 C 41.1667,2.83333 42.8333,2.83333 44.5,1.5C 56.2419,0.716351 59.9086,5.88302 55.5,17C 58.6064,23.5952 58.9398,30.2618 56.5,37C 56.6448,37.772 56.9781,38.4387 57.5,39C 54.996,42.8624 52.6626,46.6958 50.5,50.5C 41.2133,57.0501 30.88,58.8835 19.5,56C 18.4293,55.1482 17.4293,54.3149 16.5,53.5C 16.5,52.8333 16.8333,52.5 17.5,52.5C 22.0617,54.6002 26.7284,54.9336 31.5,53.5C 41.0799,53.8802 48.0799,49.8802 52.5,41.5C 55.4755,35.4121 56.1421,29.0788 54.5,22.5C 54.4754,19.821 53.142,18.4877 50.5,18.5C 47.6082,15.729 44.9416,12.729 42.5,9.5C 42.5,8.83333 42.1667,8.5 41.5,8.5C 39.9689,7.07546 40.3023,6.40879 42.5,6.5C 43.5,7.83333 44.5,9.16667 45.5,10.5C 46.7017,12.3925 48.035,14.2258 49.5,16C 50.7839,16.6838 51.9505,16.5171 53,15.5C 54.4568,12.634 54.7901,9.63396 54,6.5C 52.8904,4.96317 51.3904,4.2965 49.5,4.5C 48.8333,4.5 48.1667,4.5 47.5,4.5C 39.6841,3.50761 31.6841,3.17428 23.5,3.5C 22.8333,3.5 22.5,3.16667 22.5,2.5C 28.1064,1.59311 33.773,1.25978 39.5,1.5 Z"/></g>
<g><path style="opacity:0.579" fill="#131313" d="M 22.5,2.5 C 22.5,3.16667 22.8333,3.5 23.5,3.5C 22.1917,4.2323 20.8584,5.06564 19.5,6C 22.1998,7.85673 23.8665,10.3567 24.5,13.5C 24.5,14.8333 24.5,16.1667 24.5,17.5C 22.6068,14.1801 20.6068,10.8468 18.5,7.5C 17.2921,6.76589 15.9587,6.43255 14.5,6.5C 10.8453,5.92497 7.84534,6.92497 5.5,9.5C 4.56552,10.5676 4.23219,11.901 4.5,13.5C 4.17464,21.3516 4.50797,29.0182 5.5,36.5C 7.57581,43.2469 11.5758,48.5803 17.5,52.5C 16.8333,52.5 16.5,52.8333 16.5,53.5C 14.0052,52.8011 11.6719,51.8011 9.5,50.5C 7.71159,47.6125 5.87826,44.6125 4,41.5C 3.5415,37.5811 2.70816,33.7478 1.5,30C 2.69365,25.5113 2.69365,21.0113 1.5,16.5C 1.96391,13.1132 2.63058,9.77988 3.5,6.5C 5.7834,6.39209 7.7834,5.55876 9.5,4C 13.9171,3.77246 18.2504,3.27246 22.5,2.5 Z"/></g>
<g><path style="opacity:0.596" fill="#b6b6b6" d="M 14.5,6.5 C 15.9587,6.43255 17.2921,6.76589 18.5,7.5C 18.1667,8.16667 17.8333,8.83333 17.5,9.5C 14.9013,10.7608 12.568,12.4275 10.5,14.5C 8.82946,14.3318 7.49612,13.6651 6.5,12.5C 7.92167,12.2914 9.25501,11.7914 10.5,11C 11.3574,8.98124 12.6908,7.48124 14.5,6.5 Z"/></g>
<g><path style="opacity:0.839" fill="#e8e8e8" d="M 14.5,6.5 C 12.6908,7.48124 11.3574,8.98124 10.5,11C 9.25501,11.7914 7.92167,12.2914 6.5,12.5C 5.59603,11.791 5.26269,10.791 5.5,9.5C 7.84534,6.92497 10.8453,5.92497 14.5,6.5 Z"/></g>
<g><path style="opacity:0.173" fill="#838383" d="M 4.5,13.5 C 5.066,17.2989 6.73267,20.6323 9.5,23.5C 6.80318,27.5562 6.96984,31.5562 10,35.5C 16.7135,40.296 21.8801,38.9627 25.5,31.5C 26.7281,32.3065 27.7281,33.3065 28.5,34.5C 31.5113,35.6693 34.178,37.336 36.5,39.5C 33.1845,44.2502 29.5178,44.5836 25.5,40.5C 24.4376,41.4246 24.4376,42.4246 25.5,43.5C 24.8826,43.6107 24.3826,43.944 24,44.5C 20.1835,43.0047 16.3502,41.5047 12.5,40C 10.0148,38.5126 7.84817,36.6792 6,34.5C 5.53566,35.0944 5.36899,35.7611 5.5,36.5C 4.50797,29.0182 4.17464,21.3516 4.5,13.5 Z"/></g>
<g><path style="opacity:0.208" fill="#888888" d="M 54.5,22.5 C 56.1421,29.0788 55.4755,35.4121 52.5,41.5C 50.5,43.1667 48.5,44.8333 46.5,46.5C 43.5782,44.7719 40.2449,43.7719 36.5,43.5C 36.9081,42.3569 37.5748,41.3569 38.5,40.5C 40.7676,41.5443 43.1009,41.711 45.5,41C 49.1044,39.6661 50.271,37.1661 49,33.5C 48.0168,35.4484 46.8502,37.2817 45.5,39C 44.5,39.1667 43.5,39.3333 42.5,39.5C 38.1511,39.1451 37.4844,37.4784 40.5,34.5C 41.2216,34.9175 41.7216,35.5842 42,36.5C 46.8432,32.3539 51.0099,27.6872 54.5,22.5 Z"/></g>
<g><path style="opacity:0.147" fill="#9f9f9f" d="M 25.5,43.5 C 29.1293,46.017 32.796,46.017 36.5,43.5C 40.2449,43.7719 43.5782,44.7719 46.5,46.5C 41.717,49.4214 36.717,51.7548 31.5,53.5C 26.7284,54.9336 22.0617,54.6002 17.5,52.5C 11.5758,48.5803 7.57581,43.2469 5.5,36.5C 5.36899,35.7611 5.53566,35.0944 6,34.5C 7.84817,36.6792 10.0148,38.5126 12.5,40C 16.3502,41.5047 20.1835,43.0047 24,44.5C 24.3826,43.944 24.8826,43.6107 25.5,43.5 Z"/></g>
<g><path style="opacity:0.435" fill="#2d2d2d" d="M 52.5,41.5 C 48.0799,49.8802 41.0799,53.8802 31.5,53.5C 36.717,51.7548 41.717,49.4214 46.5,46.5C 48.5,44.8333 50.5,43.1667 52.5,41.5 Z"/></g>
</svg>
