<svg xmlns="http://www.w3.org/2000/svg"  viewBox="0 0 128 128" width="16px" height="16px"><path d="M 64 6 C 32 6 6 32 6 64 C 6 96 32 122 64 122 C 96 122 122 96 122 64 C 122 32 96 6 64 6 z M 64 12 C 92.7 12 116 35.3 116 64 C 116 92.7 92.7 116 64 116 C 35.3 116 12 92.7 12 64 C 12 35.3 35.3 12 64 12 z M 64 29 C 58.5 29 54 33.5 54 39 C 54 44.5 58.5 49 64 49 C 69.5 49 74 44.5 74 39 C 74 33.5 69.5 29 64 29 z M 64 35 C 66.2 35 68 36.8 68 39 C 68 41.2 66.2 43 64 43 C 61.8 43 60 41.2 60 39 C 60 36.8 61.8 35 64 35 z M 64 58 C 58.5 58 54 62.5 54 68 L 54 92 C 54 97.5 58.5 102 64 102 C 69.5 102 74 97.5 74 92 L 74 68 C 74 62.5 69.5 58 64 58 z M 64 64 C 66.2 64 68 65.8 68 68 L 68 92 C 68 94.2 66.2 96 64 96 C 61.8 96 60 94.2 60 92 L 60 68 C 60 65.8 61.8 64 64 64 z"/></svg>