<?xml version="1.0" encoding="UTF-8"?>
<svg xmlns="http://www.w3.org/2000/svg" xmlns:xlink="http://www.w3.org/1999/xlink" width="16px" height="16px" viewBox="0 0 16 16" version="1.1">
<g id="surface1">
<path style=" stroke:none;fill-rule:nonzero;fill:rgb(10%,10%,10%);fill-opacity:1;" d="M 3.359375 4.160156 C 1.761719 4.160156 0.160156 5.601562 0.160156 7.519531 C 0.175781 9.28125 1.441406 11.039062 3.359375 11.039062 C 5.28125 11.039062 6.878906 9.441406 6.878906 7.519531 L 5.921875 7.519531 C 5.921875 8.160156 5.28125 8.960938 4.320312 8.960938 C 3.359375 8.960938 2.878906 8.160156 2.878906 7.359375 C 2.878906 6.398438 3.679688 5.761719 4.320312 5.761719 C 5.28125 5.761719 5.921875 6.558594 5.921875 7.359375 L 5.921875 7.519531 L 6.878906 7.519531 C 6.878906 5.601562 5.601562 4.160156 3.359375 4.160156 Z M 3.359375 4.160156 "/>
<path style=" stroke:none;fill-rule:nonzero;fill:rgb(10%,10%,10%);fill-opacity:1;" d="M 15.839844 4.640625 C 15.839844 3.667969 15.050781 2.878906 14.078125 2.878906 C 13.109375 2.878906 12.320312 3.667969 12.320312 4.640625 C 12.320312 5.613281 13.109375 6.398438 14.078125 6.398438 C 15.050781 6.398438 15.839844 5.613281 15.839844 4.640625 Z M 15.839844 4.640625 "/>
<path style=" stroke:none;fill-rule:nonzero;fill:rgb(10%,10%,10%);fill-opacity:1;" d="M 8 8.640625 L 12.160156 7.359375 C 12.640625 7.199219 13.121094 7.199219 12.800781 8 L 11.359375 10.558594 C 11.199219 11.039062 11.039062 11.039062 10.71875 10.71875 L 8 9.28125 C 7.359375 8.960938 8 8.640625 8 8.640625 Z M 8 8.640625 "/>
<path style="fill:none;stroke-width:3;stroke-linecap:round;stroke-linejoin:miter;stroke:rgb(10%,10%,10%);stroke-opacity:1;stroke-miterlimit:4;" d="M 41.992188 75 C 43.994141 81.005859 58.007812 83.007812 63.989258 77.001953 C 68.994141 71.99707 68.994141 66.992188 68.994141 66.992188 C 68.994141 66.992188 72.998047 72.998047 81.005859 72.998047 C 93.994141 72.998047 93.994141 59.008789 93.994141 59.008789 " transform="matrix(0.16,0,0,0.16,0,0)"/>
</g>
</svg>
