<?xml version="1.0" standalone="no"?>
<!DOCTYPE svg PUBLIC "-//W3C//DTD SVG 20010904//EN"
 "http://www.w3.org/TR/2001/REC-SVG-20010904/DTD/svg10.dtd">
<svg version="1.0" xmlns="http://www.w3.org/2000/svg"
 width="60.000000pt" height="60.000000pt" viewBox="0 0 60.000000 60.000000"
 preserveAspectRatio="xMidYMid meet" fill-rule="evenodd" clip-rule="evenodd" stroke-linejoin="round">

<g transform="translate(0.000000,60.000000) scale(0.100000,-0.100000)"
fill="#000000" stroke="none">
<path d="M225 560 c-11 -5 -39 -9 -63 -9 -58 -1 -110 -25 -122 -55 -13 -36
-10 -224 5 -274 19 -63 53 -108 114 -150 52 -36 56 -37 145 -37 87 0 94 2 143
33 63 41 108 105 124 179 11 48 10 65 -4 120 -9 36 -14 69 -11 74 3 5 6 28 6
51 1 70 -18 78 -181 77 -75 0 -145 -4 -156 -9z m309 -19 c23 -19 18 -90 -7
-105 -16 -9 -22 -7 -35 14 -21 31 -77 90 -66 70 28 -53 69 -101 90 -106 32 -8
44 -40 44 -116 0 -133 -94 -236 -230 -253 -105 -12 -196 35 -250 128 -29 51
-30 55 -30 189 0 136 0 138 25 154 14 9 44 17 66 18 34 1 46 -5 71 -32 20 -23
28 -42 26 -60 -3 -29 -15 -31 -88 -17 -23 4 -41 2 -53 -7 -15 -12 -12 -13 30
-13 26 0 60 -3 74 -7 16 -5 32 -3 44 5 23 17 13 66 -21 106 l-24 29 27 10 c43
16 286 10 307 -7z"/>
<path d="M420 405 c-17 -20 -5 -62 20 -70 44 -14 80 41 48 73 -17 17 -53 15
-68 -3z"/>
<path d="M133 380 c-12 -5 -29 -23 -38 -40 -48 -92 81 -174 145 -93 59 75 -17
169 -107 133z m97 -59 c5 -11 7 -26 4 -35 -8 -21 -42 -30 -59 -16 -15 13 -20
51 -8 63 13 14 53 6 63 -12z"/>
<path d="M353 288 c-35 -11 -63 -23 -63 -27 0 -4 18 -17 40 -30 44 -25 47 -32
24 -55 -18 -18 -47 -20 -75 -6 -12 7 -19 7 -19 1 0 -14 34 -31 60 -31 11 0 31
10 44 23 18 18 31 22 60 19 42 -5 76 18 76 52 -1 19 -3 18 -16 -6 -17 -32 -57
-46 -79 -28 -12 10 -12 17 5 51 21 40 25 60 13 58 -5 -1 -36 -10 -70 -21z"/>
</g>
</svg>
