<?xml version="1.0" encoding="UTF-8"?>
<svg xmlns="http://www.w3.org/2000/svg" xmlns:xlink="http://www.w3.org/1999/xlink" width="16px" height="16px" viewBox="0 0 16 16" version="1.1">
<defs>
<filter id="alpha" filterUnits="objectBoundingBox" x="0%" y="0%" width="100%" height="100%">
  <feColorMatrix type="matrix" in="SourceGraphic" values="0 0 0 0 1 0 0 0 0 1 0 0 0 0 1 0 0 0 1 0"/>
</filter>
<mask id="mask0">
  <g filter="url(#alpha)">
<rect x="0" y="0" width="16" height="16" style="fill:rgb(0%,0%,0%);fill-opacity:0.411765;stroke:none;"/>
  </g>
</mask>
<clipPath id="clip1">
  <rect x="0" y="0" width="16" height="16"/>
</clipPath>
<g id="surface5" clip-path="url(#clip1)">
<path style=" stroke:none;fill-rule:evenodd;fill:rgb(46.666667%,46.666667%,46.666667%);fill-opacity:1;" d="M 11.867188 0.398438 C 11.421875 0.753906 10.976562 0.753906 10.535156 0.398438 C 10.996094 0.117188 11.441406 0.117188 11.867188 0.398438 Z M 11.867188 0.398438 "/>
</g>
<mask id="mask1">
  <g filter="url(#alpha)">
<rect x="0" y="0" width="16" height="16" style="fill:rgb(0%,0%,0%);fill-opacity:0.960784;stroke:none;"/>
  </g>
</mask>
<clipPath id="clip2">
  <rect x="0" y="0" width="16" height="16"/>
</clipPath>
<g id="surface8" clip-path="url(#clip2)">
<path style=" stroke:none;fill-rule:evenodd;fill:rgb(87.843138%,87.843138%,87.843138%);fill-opacity:1;" d="M 6.265625 0.933594 C 8.449219 0.847656 10.582031 0.933594 12.667969 1.199219 C 12.257812 1.414062 11.816406 1.59375 11.332031 1.734375 C 10.484375 1.386719 9.59375 1.386719 8.667969 1.734375 C 7.847656 2.285156 7.226562 2.996094 6.800781 3.867188 C 6.800781 3.6875 6.710938 3.601562 6.535156 3.601562 C 6.363281 2.761719 5.921875 2.09375 5.199219 1.601562 C 5.5625 1.351562 5.917969 1.128906 6.265625 0.933594 Z M 6.265625 0.933594 "/>
</g>
<mask id="mask2">
  <g filter="url(#alpha)">
<rect x="0" y="0" width="16" height="16" style="fill:rgb(0%,0%,0%);fill-opacity:0.376471;stroke:none;"/>
  </g>
</mask>
<clipPath id="clip3">
  <rect x="0" y="0" width="16" height="16"/>
</clipPath>
<g id="surface11" clip-path="url(#clip3)">
<path style=" stroke:none;fill-rule:evenodd;fill:rgb(68.627453%,68.627453%,68.627453%);fill-opacity:1;" d="M 12.667969 1.199219 C 12.84375 1.199219 13.023438 1.199219 13.199219 1.199219 C 13.53125 1.390625 13.664062 1.65625 13.601562 2 C 13.261719 2.5625 12.773438 2.828125 12.132812 2.800781 C 11.867188 2.445312 11.601562 2.089844 11.332031 1.734375 C 11.816406 1.59375 12.257812 1.414062 12.667969 1.199219 Z M 12.667969 1.199219 "/>
</g>
<mask id="mask3">
  <g filter="url(#alpha)">
<rect x="0" y="0" width="16" height="16" style="fill:rgb(0%,0%,0%);fill-opacity:0.231373;stroke:none;"/>
  </g>
</mask>
<clipPath id="clip4">
  <rect x="0" y="0" width="16" height="16"/>
</clipPath>
<g id="surface14" clip-path="url(#clip4)">
<path style=" stroke:none;fill-rule:evenodd;fill:rgb(40.392157%,40.392157%,40.392157%);fill-opacity:1;" d="M 13.199219 1.199219 C 13.703125 1.144531 14.105469 1.324219 14.398438 1.734375 C 14.609375 2.570312 14.523438 3.367188 14.132812 4.132812 C 13.851562 4.40625 13.542969 4.449219 13.199219 4.265625 C 12.808594 3.792969 12.453125 3.304688 12.132812 2.800781 C 12.773438 2.828125 13.261719 2.5625 13.601562 2 C 13.664062 1.65625 13.53125 1.390625 13.199219 1.199219 Z M 13.199219 1.199219 "/>
</g>
<mask id="mask4">
  <g filter="url(#alpha)">
<rect x="0" y="0" width="16" height="16" style="fill:rgb(0%,0%,0%);fill-opacity:0.32549;stroke:none;"/>
  </g>
</mask>
<clipPath id="clip5">
  <rect x="0" y="0" width="16" height="16"/>
</clipPath>
<g id="surface17" clip-path="url(#clip5)">
<path style=" stroke:none;fill-rule:evenodd;fill:rgb(13.333334%,13.333334%,13.333334%);fill-opacity:1;" d="M 4.933594 2 C 5.496094 2.890625 6.027344 3.78125 6.535156 4.667969 C 6.269531 5.074219 5.867188 5.25 5.332031 5.199219 C 4.207031 4.921875 3.097656 4.878906 2 5.066406 C 2.679688 4.507812 3.476562 4.242188 4.398438 4.265625 C 4.035156 3.691406 4.125 3.113281 4.667969 2.535156 C 4.753906 2.355469 4.84375 2.179688 4.933594 2 Z M 4.933594 2 "/>
</g>
<mask id="mask5">
  <g filter="url(#alpha)">
<rect x="0" y="0" width="16" height="16" style="fill:rgb(0%,0%,0%);fill-opacity:0.290196;stroke:none;"/>
  </g>
</mask>
<clipPath id="clip6">
  <rect x="0" y="0" width="16" height="16"/>
</clipPath>
<g id="surface20" clip-path="url(#clip6)">
<path style=" stroke:none;fill-rule:evenodd;fill:rgb(28.235295%,28.235295%,28.235295%);fill-opacity:1;" d="M 1.464844 2.535156 C 1.402344 2.878906 1.492188 3.144531 1.734375 3.332031 C 2 3.644531 2.355469 3.820312 2.800781 3.867188 C 3.351562 3.3125 3.972656 2.871094 4.667969 2.535156 C 4.125 3.113281 4.035156 3.691406 4.398438 4.265625 C 3.476562 4.242188 2.679688 4.507812 2 5.066406 C 3.097656 4.878906 4.207031 4.921875 5.332031 5.199219 C 5.867188 5.25 6.269531 5.074219 6.535156 4.667969 C 6.535156 4.3125 6.535156 3.957031 6.535156 3.601562 C 6.710938 3.601562 6.800781 3.6875 6.800781 3.867188 C 6.863281 4.390625 6.773438 4.878906 6.535156 5.332031 C 6.878906 5.464844 7.234375 5.507812 7.601562 5.464844 C 7.867188 5.464844 8.132812 5.464844 8.398438 5.464844 C 9.4375 4.539062 10.417969 3.5625 11.332031 2.535156 C 11.984375 3.394531 12.695312 4.195312 13.464844 4.933594 C 13.289062 4.933594 13.199219 5.023438 13.199219 5.199219 C 11.5625 4.199219 10.808594 4.644531 10.933594 6.535156 C 11.199219 6.683594 11.421875 6.863281 11.601562 7.066406 C 10.992188 7.121094 10.636719 7.300781 10.535156 7.601562 C 9.683594 7.929688 8.792969 8.238281 7.867188 8.535156 C 7.667969 8.710938 7.578125 8.933594 7.601562 9.199219 C 7.394531 8.882812 7.128906 8.613281 6.800781 8.398438 C 6.890625 6.710938 6.089844 5.734375 4.398438 5.464844 C 3.675781 5.519531 3.054688 5.785156 2.535156 6.265625 C 1.796875 5.5 1.351562 4.613281 1.199219 3.601562 C 1.128906 3.171875 1.21875 2.816406 1.464844 2.535156 Z M 1.464844 2.535156 "/>
</g>
<mask id="mask6">
  <g filter="url(#alpha)">
<rect x="0" y="0" width="16" height="16" style="fill:rgb(0%,0%,0%);fill-opacity:0.654902;stroke:none;"/>
  </g>
</mask>
<clipPath id="clip7">
  <rect x="0" y="0" width="16" height="16"/>
</clipPath>
<g id="surface23" clip-path="url(#clip7)">
<path style=" stroke:none;fill-rule:evenodd;fill:rgb(75.294119%,75.294119%,75.294119%);fill-opacity:1;" d="M 11.332031 1.734375 C 10.746094 1.710938 10.660156 1.886719 11.066406 2.265625 C 9.394531 2.78125 8.238281 3.847656 7.601562 5.464844 C 7.234375 5.507812 6.878906 5.464844 6.535156 5.332031 C 6.773438 4.878906 6.863281 4.390625 6.800781 3.867188 C 7.226562 2.996094 7.847656 2.285156 8.667969 1.734375 C 9.59375 1.386719 10.484375 1.386719 11.332031 1.734375 Z M 11.332031 1.734375 "/>
</g>
<mask id="mask7">
  <g filter="url(#alpha)">
<rect x="0" y="0" width="16" height="16" style="fill:rgb(0%,0%,0%);fill-opacity:0.517647;stroke:none;"/>
  </g>
</mask>
<clipPath id="clip8">
  <rect x="0" y="0" width="16" height="16"/>
</clipPath>
<g id="surface26" clip-path="url(#clip8)">
<path style=" stroke:none;fill-rule:evenodd;fill:rgb(58.823532%,58.823532%,58.823532%);fill-opacity:1;" d="M 11.066406 2.265625 C 11.246094 2.265625 11.332031 2.355469 11.332031 2.535156 C 9.910156 3.066406 8.933594 4.042969 8.398438 5.464844 C 8.132812 5.464844 7.867188 5.464844 7.601562 5.464844 C 8.238281 3.847656 9.394531 2.78125 11.066406 2.265625 Z M 11.066406 2.265625 "/>
</g>
<mask id="mask8">
  <g filter="url(#alpha)">
<rect x="0" y="0" width="16" height="16" style="fill:rgb(0%,0%,0%);fill-opacity:0.415686;stroke:none;"/>
  </g>
</mask>
<clipPath id="clip9">
  <rect x="0" y="0" width="16" height="16"/>
</clipPath>
<g id="surface29" clip-path="url(#clip9)">
<path style=" stroke:none;fill-rule:evenodd;fill:rgb(43.529412%,43.529412%,43.529412%);fill-opacity:1;" d="M 11.332031 2.535156 C 10.417969 3.5625 9.4375 4.539062 8.398438 5.464844 C 8.933594 4.042969 9.910156 3.066406 11.332031 2.535156 Z M 11.332031 2.535156 "/>
</g>
<mask id="mask9">
  <g filter="url(#alpha)">
<rect x="0" y="0" width="16" height="16" style="fill:rgb(0%,0%,0%);fill-opacity:0.984314;stroke:none;"/>
  </g>
</mask>
<clipPath id="clip10">
  <rect x="0" y="0" width="16" height="16"/>
</clipPath>
<g id="surface32" clip-path="url(#clip10)">
<path style=" stroke:none;fill-rule:evenodd;fill:rgb(2.352941%,2.352941%,2.352941%);fill-opacity:1;" d="M 13.199219 5.199219 C 13.328125 6.40625 12.792969 7.027344 11.601562 7.066406 C 11.421875 6.863281 11.199219 6.683594 10.933594 6.535156 C 10.808594 4.644531 11.5625 4.199219 13.199219 5.199219 Z M 13.199219 5.199219 "/>
</g>
<mask id="mask10">
  <g filter="url(#alpha)">
<rect x="0" y="0" width="16" height="16" style="fill:rgb(0%,0%,0%);fill-opacity:0.988235;stroke:none;"/>
  </g>
</mask>
<clipPath id="clip11">
  <rect x="0" y="0" width="16" height="16"/>
</clipPath>
<g id="surface35" clip-path="url(#clip11)">
<path style=" stroke:none;fill-rule:evenodd;fill:rgb(3.921569%,3.921569%,3.921569%);fill-opacity:1;" d="M 6.800781 8.398438 C 5.835938 10.390625 4.457031 10.746094 2.667969 9.464844 C 1.859375 8.414062 1.8125 7.347656 2.535156 6.265625 C 3.054688 5.785156 3.675781 5.519531 4.398438 5.464844 C 6.089844 5.734375 6.890625 6.710938 6.800781 8.398438 Z M 6.800781 8.398438 "/>
</g>
<mask id="mask11">
  <g filter="url(#alpha)">
<rect x="0" y="0" width="16" height="16" style="fill:rgb(0%,0%,0%);fill-opacity:0.231373;stroke:none;"/>
  </g>
</mask>
<clipPath id="clip12">
  <rect x="0" y="0" width="16" height="16"/>
</clipPath>
<g id="surface38" clip-path="url(#clip12)">
<path style=" stroke:none;fill-rule:evenodd;fill:rgb(42.745098%,42.745098%,42.745098%);fill-opacity:1;" d="M 13.464844 4.933594 C 14.171875 4.929688 14.527344 5.285156 14.535156 6 C 13.601562 7.382812 12.492188 8.628906 11.199219 9.734375 C 11.125 9.488281 10.992188 9.3125 10.800781 9.199219 C 11.101562 8.714844 11.277344 8.183594 11.332031 7.601562 C 11.066406 7.601562 10.800781 7.601562 10.535156 7.601562 C 10.636719 7.300781 10.992188 7.121094 11.601562 7.066406 C 12.792969 7.027344 13.328125 6.40625 13.199219 5.199219 C 13.199219 5.023438 13.289062 4.933594 13.464844 4.933594 Z M 13.464844 4.933594 "/>
</g>
<mask id="mask12">
  <g filter="url(#alpha)">
<rect x="0" y="0" width="16" height="16" style="fill:rgb(0%,0%,0%);fill-opacity:0.239216;stroke:none;"/>
  </g>
</mask>
<clipPath id="clip13">
  <rect x="0" y="0" width="16" height="16"/>
</clipPath>
<g id="surface41" clip-path="url(#clip13)">
<path style=" stroke:none;fill-rule:evenodd;fill:rgb(37.64706%,37.64706%,37.64706%);fill-opacity:1;" d="M 4.398438 6.800781 C 6.054688 6.75 6.410156 7.417969 5.464844 8.800781 C 4.167969 8.722656 3.8125 8.054688 4.398438 6.800781 Z M 4.398438 6.800781 "/>
</g>
<mask id="mask13">
  <g filter="url(#alpha)">
<rect x="0" y="0" width="16" height="16" style="fill:rgb(0%,0%,0%);fill-opacity:0.980392;stroke:none;"/>
  </g>
</mask>
<clipPath id="clip14">
  <rect x="0" y="0" width="16" height="16"/>
</clipPath>
<g id="surface44" clip-path="url(#clip14)">
<path style=" stroke:none;fill-rule:evenodd;fill:rgb(5.882353%,5.882353%,5.882353%);fill-opacity:1;" d="M 10.535156 7.601562 C 10.800781 7.601562 11.066406 7.601562 11.332031 7.601562 C 11.277344 8.183594 11.101562 8.714844 10.800781 9.199219 C 9.996094 9.996094 10.171875 10.4375 11.332031 10.535156 C 11.601562 10.488281 11.867188 10.445312 12.132812 10.398438 C 12.492188 9.941406 12.804688 9.453125 13.066406 8.933594 C 13.40625 9.910156 13.09375 10.578125 12.132812 10.933594 C 11.492188 11.121094 10.871094 11.078125 10.265625 10.800781 C 10.019531 11.027344 9.84375 11.296875 9.734375 11.601562 C 8.746094 12.269531 7.769531 12.269531 6.800781 11.601562 C 6.515625 11.3125 6.515625 11.046875 6.800781 10.800781 C 7.871094 11.890625 8.847656 11.800781 9.734375 10.535156 C 9.113281 9.957031 8.402344 9.511719 7.601562 9.199219 C 7.578125 8.933594 7.667969 8.710938 7.867188 8.535156 C 8.792969 8.238281 9.683594 7.929688 10.535156 7.601562 Z M 10.535156 7.601562 "/>
</g>
<mask id="mask14">
  <g filter="url(#alpha)">
<rect x="0" y="0" width="16" height="16" style="fill:rgb(0%,0%,0%);fill-opacity:0.529412;stroke:none;"/>
  </g>
</mask>
<clipPath id="clip15">
  <rect x="0" y="0" width="16" height="16"/>
</clipPath>
<g id="surface47" clip-path="url(#clip15)">
<path style=" stroke:none;fill-rule:evenodd;fill:rgb(3.137255%,3.137255%,3.137255%);fill-opacity:1;" d="M 10.535156 0.398438 C 10.976562 0.753906 11.421875 0.753906 11.867188 0.398438 C 14.996094 0.191406 15.976562 1.570312 14.800781 4.535156 C 15.628906 6.292969 15.71875 8.070312 15.066406 9.867188 C 15.105469 10.074219 15.195312 10.25 15.332031 10.398438 C 14.664062 11.429688 14.042969 12.453125 13.464844 13.464844 C 10.988281 15.214844 8.234375 15.703125 5.199219 14.933594 C 4.914062 14.707031 4.648438 14.484375 4.398438 14.265625 C 4.398438 14.089844 4.488281 14 4.667969 14 C 5.882812 14.558594 7.128906 14.648438 8.398438 14.265625 C 10.953125 14.367188 12.820312 13.300781 14 11.066406 C 14.792969 9.441406 14.972656 7.753906 14.535156 6 C 14.527344 5.285156 14.171875 4.929688 13.464844 4.933594 C 12.695312 4.195312 11.984375 3.394531 11.332031 2.535156 C 11.332031 2.355469 11.246094 2.265625 11.066406 2.265625 C 10.660156 1.886719 10.746094 1.710938 11.332031 1.734375 C 11.601562 2.089844 11.867188 2.445312 12.132812 2.800781 C 12.453125 3.304688 12.808594 3.792969 13.199219 4.265625 C 13.542969 4.449219 13.851562 4.40625 14.132812 4.132812 C 14.523438 3.367188 14.609375 2.570312 14.398438 1.734375 C 14.105469 1.324219 13.703125 1.144531 13.199219 1.199219 C 13.023438 1.199219 12.84375 1.199219 12.667969 1.199219 C 10.582031 0.933594 8.449219 0.847656 6.265625 0.933594 C 6.089844 0.933594 6 0.84375 6 0.667969 C 7.496094 0.425781 9.007812 0.335938 10.535156 0.398438 Z M 10.535156 0.398438 "/>
</g>
<mask id="mask15">
  <g filter="url(#alpha)">
<rect x="0" y="0" width="16" height="16" style="fill:rgb(0%,0%,0%);fill-opacity:0.580392;stroke:none;"/>
  </g>
</mask>
<clipPath id="clip16">
  <rect x="0" y="0" width="16" height="16"/>
</clipPath>
<g id="surface50" clip-path="url(#clip16)">
<path style=" stroke:none;fill-rule:evenodd;fill:rgb(7.450981%,7.450981%,7.450981%);fill-opacity:1;" d="M 6 0.667969 C 6 0.84375 6.089844 0.933594 6.265625 0.933594 C 5.917969 1.128906 5.5625 1.351562 5.199219 1.601562 C 5.921875 2.09375 6.363281 2.761719 6.535156 3.601562 C 6.535156 3.957031 6.535156 4.3125 6.535156 4.667969 C 6.027344 3.78125 5.496094 2.890625 4.933594 2 C 4.609375 1.804688 4.253906 1.714844 3.867188 1.734375 C 2.890625 1.578125 2.09375 1.847656 1.464844 2.535156 C 1.21875 2.816406 1.128906 3.171875 1.199219 3.601562 C 1.113281 5.695312 1.203125 7.738281 1.464844 9.734375 C 2.019531 11.53125 3.085938 12.953125 4.667969 14 C 4.488281 14 4.398438 14.089844 4.398438 14.265625 C 3.734375 14.082031 3.113281 13.8125 2.535156 13.464844 C 2.054688 12.695312 1.566406 11.898438 1.066406 11.066406 C 0.945312 10.023438 0.722656 9 0.398438 8 C 0.71875 6.804688 0.71875 5.601562 0.398438 4.398438 C 0.523438 3.496094 0.703125 2.609375 0.933594 1.734375 C 1.542969 1.703125 2.074219 1.480469 2.535156 1.066406 C 3.710938 1.007812 4.867188 0.871094 6 0.667969 Z M 6 0.667969 "/>
</g>
<mask id="mask16">
  <g filter="url(#alpha)">
<rect x="0" y="0" width="16" height="16" style="fill:rgb(0%,0%,0%);fill-opacity:0.596078;stroke:none;"/>
  </g>
</mask>
<clipPath id="clip17">
  <rect x="0" y="0" width="16" height="16"/>
</clipPath>
<g id="surface53" clip-path="url(#clip17)">
<path style=" stroke:none;fill-rule:evenodd;fill:rgb(71.372551%,71.372551%,71.372551%);fill-opacity:1;" d="M 3.867188 1.734375 C 4.253906 1.714844 4.609375 1.804688 4.933594 2 C 4.84375 2.179688 4.753906 2.355469 4.667969 2.535156 C 3.972656 2.871094 3.351562 3.3125 2.800781 3.867188 C 2.355469 3.820312 2 3.644531 1.734375 3.332031 C 2.113281 3.277344 2.46875 3.144531 2.800781 2.933594 C 3.027344 2.394531 3.382812 1.996094 3.867188 1.734375 Z M 3.867188 1.734375 "/>
</g>
<mask id="mask17">
  <g filter="url(#alpha)">
<rect x="0" y="0" width="16" height="16" style="fill:rgb(0%,0%,0%);fill-opacity:0.839216;stroke:none;"/>
  </g>
</mask>
<clipPath id="clip18">
  <rect x="0" y="0" width="16" height="16"/>
</clipPath>
<g id="surface56" clip-path="url(#clip18)">
<path style=" stroke:none;fill-rule:evenodd;fill:rgb(90.980393%,90.980393%,90.980393%);fill-opacity:1;" d="M 3.867188 1.734375 C 3.382812 1.996094 3.027344 2.394531 2.800781 2.933594 C 2.46875 3.144531 2.113281 3.277344 1.734375 3.332031 C 1.492188 3.144531 1.402344 2.878906 1.464844 2.535156 C 2.09375 1.847656 2.890625 1.578125 3.867188 1.734375 Z M 3.867188 1.734375 "/>
</g>
<mask id="mask18">
  <g filter="url(#alpha)">
<rect x="0" y="0" width="16" height="16" style="fill:rgb(0%,0%,0%);fill-opacity:0.172549;stroke:none;"/>
  </g>
</mask>
<clipPath id="clip19">
  <rect x="0" y="0" width="16" height="16"/>
</clipPath>
<g id="surface59" clip-path="url(#clip19)">
<path style=" stroke:none;fill-rule:evenodd;fill:rgb(51.372552%,51.372552%,51.372552%);fill-opacity:1;" d="M 1.199219 3.601562 C 1.351562 4.613281 1.796875 5.5 2.535156 6.265625 C 1.8125 7.347656 1.859375 8.414062 2.667969 9.464844 C 4.457031 10.746094 5.835938 10.390625 6.800781 8.398438 C 7.128906 8.613281 7.394531 8.882812 7.601562 9.199219 C 8.402344 9.511719 9.113281 9.957031 9.734375 10.535156 C 8.847656 11.800781 7.871094 11.890625 6.800781 10.800781 C 6.515625 11.046875 6.515625 11.3125 6.800781 11.601562 C 6.636719 11.628906 6.503906 11.71875 6.398438 11.867188 C 5.382812 11.46875 4.359375 11.066406 3.332031 10.667969 C 2.671875 10.269531 2.09375 9.78125 1.601562 9.199219 C 1.476562 9.359375 1.433594 9.535156 1.464844 9.734375 C 1.203125 7.738281 1.113281 5.695312 1.199219 3.601562 Z M 1.199219 3.601562 "/>
</g>
<mask id="mask19">
  <g filter="url(#alpha)">
<rect x="0" y="0" width="16" height="16" style="fill:rgb(0%,0%,0%);fill-opacity:0.207843;stroke:none;"/>
  </g>
</mask>
<clipPath id="clip20">
  <rect x="0" y="0" width="16" height="16"/>
</clipPath>
<g id="surface62" clip-path="url(#clip20)">
<path style=" stroke:none;fill-rule:evenodd;fill:rgb(53.333336%,53.333336%,53.333336%);fill-opacity:1;" d="M 14.535156 6 C 14.972656 7.753906 14.792969 9.441406 14 11.066406 C 13.464844 11.511719 12.933594 11.957031 12.398438 12.398438 C 11.621094 11.9375 10.730469 11.671875 9.734375 11.601562 C 9.84375 11.296875 10.019531 11.027344 10.265625 10.800781 C 10.871094 11.078125 11.492188 11.121094 12.132812 10.933594 C 13.09375 10.578125 13.40625 9.910156 13.066406 8.933594 C 12.804688 9.453125 12.492188 9.941406 12.132812 10.398438 C 11.867188 10.445312 11.601562 10.488281 11.332031 10.535156 C 10.171875 10.4375 9.996094 9.996094 10.800781 9.199219 C 10.992188 9.3125 11.125 9.488281 11.199219 9.734375 C 12.492188 8.628906 13.601562 7.382812 14.535156 6 Z M 14.535156 6 "/>
</g>
<mask id="mask20">
  <g filter="url(#alpha)">
<rect x="0" y="0" width="16" height="16" style="fill:rgb(0%,0%,0%);fill-opacity:0.145098;stroke:none;"/>
  </g>
</mask>
<clipPath id="clip21">
  <rect x="0" y="0" width="16" height="16"/>
</clipPath>
<g id="surface65" clip-path="url(#clip21)">
<path style=" stroke:none;fill-rule:evenodd;fill:rgb(62.352943%,62.352943%,62.352943%);fill-opacity:1;" d="M 6.800781 11.601562 C 7.769531 12.269531 8.746094 12.269531 9.734375 11.601562 C 10.730469 11.671875 11.621094 11.9375 12.398438 12.398438 C 11.125 13.179688 9.792969 13.800781 8.398438 14.265625 C 7.128906 14.648438 5.882812 14.558594 4.667969 14 C 3.085938 12.953125 2.019531 11.53125 1.464844 9.734375 C 1.433594 9.535156 1.476562 9.359375 1.601562 9.199219 C 2.09375 9.78125 2.671875 10.269531 3.332031 10.667969 C 4.359375 11.066406 5.382812 11.46875 6.398438 11.867188 C 6.503906 11.71875 6.636719 11.628906 6.800781 11.601562 Z M 6.800781 11.601562 "/>
</g>
<mask id="mask21">
  <g filter="url(#alpha)">
<rect x="0" y="0" width="16" height="16" style="fill:rgb(0%,0%,0%);fill-opacity:0.435294;stroke:none;"/>
  </g>
</mask>
<clipPath id="clip22">
  <rect x="0" y="0" width="16" height="16"/>
</clipPath>
<g id="surface68" clip-path="url(#clip22)">
<path style=" stroke:none;fill-rule:evenodd;fill:rgb(17.647059%,17.647059%,17.647059%);fill-opacity:1;" d="M 14 11.066406 C 12.820312 13.300781 10.953125 14.367188 8.398438 14.265625 C 9.792969 13.800781 11.125 13.179688 12.398438 12.398438 C 12.933594 11.957031 13.464844 11.511719 14 11.066406 Z M 14 11.066406 "/>
</g>
</defs>
<g id="surface1">
<use xlink:href="#surface5" mask="url(#mask0)"/>
<use xlink:href="#surface8" mask="url(#mask1)"/>
<use xlink:href="#surface11" mask="url(#mask2)"/>
<use xlink:href="#surface14" mask="url(#mask3)"/>
<use xlink:href="#surface17" mask="url(#mask4)"/>
<use xlink:href="#surface20" mask="url(#mask5)"/>
<use xlink:href="#surface23" mask="url(#mask6)"/>
<use xlink:href="#surface26" mask="url(#mask7)"/>
<use xlink:href="#surface29" mask="url(#mask8)"/>
<use xlink:href="#surface32" mask="url(#mask9)"/>
<use xlink:href="#surface35" mask="url(#mask10)"/>
<use xlink:href="#surface38" mask="url(#mask11)"/>
<use xlink:href="#surface41" mask="url(#mask12)"/>
<use xlink:href="#surface44" mask="url(#mask13)"/>
<use xlink:href="#surface47" mask="url(#mask14)"/>
<use xlink:href="#surface50" mask="url(#mask15)"/>
<use xlink:href="#surface53" mask="url(#mask16)"/>
<use xlink:href="#surface56" mask="url(#mask17)"/>
<use xlink:href="#surface59" mask="url(#mask18)"/>
<use xlink:href="#surface62" mask="url(#mask19)"/>
<use xlink:href="#surface65" mask="url(#mask20)"/>
<use xlink:href="#surface68" mask="url(#mask21)"/>
</g>
</svg>
