<svg xmlns="http://www.w3.org/2000/svg" viewBox="0 0 600 75" width="600" height="75"><defs></defs><g transform="matrix(1,0,0,1,301.334433711,46.988703516)">
<g>
	<g transform="matrix(-1,0,0,1,-2.884974854,-2.159595167)">
		<g>
			<path d="M-102.333099,14.514719C-102.333099,10.623721 -105.669098,10.04872 -105.669098,-0.379282 " fill="none" stroke="#000000" stroke-width="0.5" vector-effect="non-scaling-stroke"/>
		</g>
	</g>
	<g transform="matrix(-1,0,0,1,-2.884974854,-2.159595167)">
		<g>
			<path d="M-98.745094,4.441721C-98.745094,4.441721 -98.745094,14.438719 -98.745094,14.438719 " fill="none" stroke="#000000" stroke-width="0.5" vector-effect="non-scaling-stroke"/>
		</g>
	</g>
	<g transform="matrix(-1,0,0,1,-2.884974854,-2.159595167)">
		<g>
			<path d="M-95.259094,14.269721C-95.259094,10.834719 -93.089096,6.671721 -93.089096,1.20172 C-93.089096,-4.269279 -93.7491,-9.08728 -93.926094,-12.07228 " fill="none" stroke="#000000" stroke-width="0.5" vector-effect="non-scaling-stroke"/>
		</g>
	</g>
	<g transform="matrix(-1,0,0,1,-2.884974854,-2.159595167)">
		<g>
			<path d="M-95.191101,-11.641281C-95.191101,-11.641281 -91.807098,-11.90628 -90.6381,-17.18728 " fill="none" stroke="#000000" stroke-width="0.5" vector-effect="non-scaling-stroke"/>
		</g>
		<g>
			<path d="M162.914803,16C162.914803,16 162.914803,-20 162.914803,-20 C162.914803,-20 174.914803,-20 174.914803,-20 C174.914803,-20 134.914803,-44 134.914803,-44 C134.914803,-44 94.914803,-20 94.914803,-20 C94.914803,-20 106.914803,-20 106.914803,-20 C106.914803,-20 106.914803,16 106.914803,16 C106.914803,16 114.914803,16 114.914803,16 C114.914803,16 113.170955,-12.643416 118.914803,-20 C125.681228,-28.666278 141.486712,-29.42809 150.914803,-20 C157.514466,-13.400337 154.914803,16 154.914803,16 C154.914803,16 162.914803,16 162.914803,16 Z" fill="none" stroke="#000000" stroke-width="0.5" vector-effect="non-scaling-stroke"/>
		</g>
		<g>
			<path d="M-91.059856,-37.725763C-91.059856,-37.725763 -90.99585,-38.062942 -90.99585,-38.062942 C-90.99585,-38.062942 -89.500685,-44.523852 -89.500685,-44.523852 C-89.500685,-44.523852 -91.108768,-44.829108 -91.108768,-44.829108 C-91.108768,-44.829108 -92.085197,-38.269729 -92.085197,-38.269729 C-92.085197,-38.269729 -92.149203,-37.93255 -92.149203,-37.93255 C-92.149203,-37.93255 -91.059856,-37.725763 -91.059856,-37.725763 C-91.059856,-37.725763 -91.059856,-37.725763 -91.059856,-37.725763 ZM-91.327655,-35.465655C-91.327655,-35.465655 -91.06671,-36.840307 -91.06671,-36.840307 C-91.06671,-36.840307 -92.467299,-37.106176 -92.467299,-37.106176 C-92.467299,-37.106176 -92.728244,-35.731524 -92.728244,-35.731524 C-92.728244,-35.731524 -91.327655,-35.465655 -91.327655,-35.465655 C-91.327655,-35.465655 -91.327655,-35.465655 -91.327655,-35.465655 Z" fill="none" stroke="#000000" stroke-width="0.5" vector-effect="non-scaling-stroke"/>
		</g>
		<g>
			<path d="M-83.608129,-34.454924C-83.608129,-34.454924 -83.456413,-34.74798 -83.456413,-34.74798 Q-83.192427,-35.257899 -83.135863,-35.711696 Q-83.079299,-36.165494 -83.139789,-36.58699 Q-83.20028,-37.008487 -83.28887,-37.425951 Q-83.429924,-38.100968 -83.472105,-38.56501 Q-83.514286,-39.029052 -83.259402,-39.521387 Q-83.043965,-39.937527 -82.715417,-40.105593 Q-82.386868,-40.273659 -82.024126,-40.249371 Q-81.661384,-40.225082 -81.344882,-40.061229 Q-80.905297,-39.833654 -80.598354,-39.51496 Q-80.29141,-39.196266 -80.063319,-38.832927 Q-79.466258,-39.727812 -79.466258,-39.727812 Q-79.702622,-40.132595 -80.089897,-40.511457 Q-80.477172,-40.890318 -81.092591,-41.208922 Q-81.825232,-41.588213 -82.473628,-41.556004 Q-83.122023,-41.523796 -83.621245,-41.183968 Q-84.120468,-40.84414 -84.405694,-40.293193 Q-84.642372,-39.836025 -84.677903,-39.408499 Q-84.713434,-38.980973 -84.6396,-38.563717 Q-84.565767,-38.14646 -84.477384,-37.71424 Q-84.347222,-37.104317 -84.285876,-36.533738 Q-84.22453,-35.963158 -84.521894,-35.388767 Q-84.710022,-35.025377 -84.710022,-35.025377 C-84.710022,-35.025377 -83.608129,-34.454924 -83.608129,-34.454924 C-83.608129,-34.454924 -83.608129,-34.454924 -83.608129,-34.454924 ZM-84.569881,-32.396214C-84.569881,-32.396214 -83.926604,-33.638774 -83.926604,-33.638774 C-83.926604,-33.638774 -85.192609,-34.294188 -85.192609,-34.294188 C-85.192609,-34.294188 -85.835885,-33.051628 -85.835885,-33.051628 C-85.835885,-33.051628 -84.569881,-32.396214 -84.569881,-32.396214 C-84.569881,-32.396214 -84.569881,-32.396214 -84.569881,-32.396214 Z" fill="none" stroke="#000000" stroke-width="0.5" vector-effect="non-scaling-stroke"/>
		</g>
	</g>
	<g transform="matrix(-1,0,0,1,-2.884974854,-2.159595167)">
		<g>
			<path d="M-100.354095,-22.039279C-100.354095,-22.039279 -101.773094,-26.44828 -102.973099,-26.44828 C-104.173096,-26.44828 -106.272095,-20.69528 -106.272095,-12.02028 C-106.272095,-9.779279 -117.961098,-3.897279 -115.483101,9.688719 C-115.085098,11.86872 -114.089096,16.025721 -114.089096,16.04172 C-114.089096,16.057719 -111.571098,25.570719 -116.958099,25.570719 C-118.079094,25.570719 -118.616096,24.95072 -119.737099,24.95072 C-120.857094,24.95072 -121.761101,25.71572 -121.761101,26.70872 C-121.761101,27.70172 -120.6511,30.142722 -116.696098,30.142722 C-109.549095,30.142722 -109.2771,24.155718 -109.2771,20.275721 C-109.2771,16.39572 -109.313095,17.59672 -109.313095,16.961722 C-109.313095,14.834719 -107.5411,14.401721 -106.883095,14.160719 " fill="none" stroke="#000000" stroke-width="0.5" vector-effect="non-scaling-stroke"/>
		</g>
	</g>
	<g transform="matrix(-1,0,0,1,-2.884974854,-2.159595167)">
		<g>
			<path d="M-95.78445,-19.328935C-95.487741,-18.591911 -95.711445,-17.807545 -96.2841,-17.577006 C-96.856756,-17.346472 -97.56152,-17.75706 -97.858229,-18.494084 C-98.154938,-19.231109 -97.931235,-20.015475 -97.35858,-20.246013 C-96.785924,-20.476548 -96.081159,-20.06596 -95.78445,-19.328935 C-95.78445,-19.328935 -95.78445,-19.328935 -95.78445,-19.328935 Z" fill="none" stroke="#000000" stroke-width="0.5" vector-effect="non-scaling-stroke"/>
		</g>
	</g>
	<g transform="matrix(-1,0,0,1,-2.884974854,-2.159595167)">
		<g>
			<path d="M-98.0681,-23.53528C-94.525101,-23.53528 -93.694099,-19.24728 -91.002098,-19.24728 " fill="none" stroke="#000000" stroke-width="0.5" vector-effect="non-scaling-stroke"/>
		</g>
	</g>
	<g transform="matrix(-1,0,0,1,-2.884974854,-2.159595167)">
		<g>
			<path d="M-95.574097,-24.80828C-95.574097,-24.80828 -96.589096,-27.14228 -97.465096,-27.14228 C-98.341095,-27.14228 -99.605095,-24.71328 -99.605095,-24.71328 " fill="none" stroke="#000000" stroke-width="0.5" vector-effect="non-scaling-stroke"/>
		</g>
	</g>
	<g transform="matrix(-1,0,0,1,-2.884974854,-2.159595167)">
		<g>
			<path d="M-105.818175,16.726178C-105.818175,16.726178 298.449459,16.726178 298.449459,16.726178 " transform="matrix(1,0,0,1,0,0)" fill="none" stroke="#000000" stroke-width="0.5" vector-effect="non-scaling-stroke"/>
		</g>
	</g>
	<g transform="matrix(-1,0,0,1,-2.884974854,-2.159595167)">
		<g>
			<path d="M-299.534656,16.727362C-299.534656,16.727362 -117.17577,16.727362 -117.17577,16.727362 " transform="matrix(1,0,0,1,0,0)" fill="none" stroke="#000000" stroke-width="0.5" vector-effect="non-scaling-stroke"/>
		</g>
	</g>
</g></g></svg>
