<?xml version="1.0" standalone="no"?>
<!DOCTYPE svg PUBLIC "-//W3C//DTD SVG 20010904//EN"
 "http://www.w3.org/TR/2001/REC-SVG-20010904/DTD/svg10.dtd">
<svg version="1.0" xmlns="http://www.w3.org/2000/svg"
 width="244.000000pt" height="244.000000pt" viewBox="0 0 244.000000 244.000000"
 preserveAspectRatio="xMidYMid meet">

<g transform="translate(0.000000,244.000000) scale(0.100000,-0.100000)"
fill="#000000" stroke="none">
<path d="M1084 2173 c-34 -34 -74 -107 -74 -135 0 -28 -1 -28 -27 -14 -16 8
-39 26 -52 40 -14 14 -28 26 -32 26 -15 0 -39 -58 -39 -94 l0 -35 -37 13 c-46
16 -107 10 -99 -10 3 -9 -2 -14 -14 -14 -26 0 -36 -21 -17 -34 13 -10 6 -19
-46 -62 -34 -28 -72 -56 -85 -63 -19 -10 -21 -15 -11 -27 6 -8 21 -14 32 -14
18 0 16 -5 -18 -41 -22 -23 -64 -57 -93 -76 -53 -34 -60 -53 -19 -53 22 0 22
-1 -3 -20 l-25 -20 23 -6 c12 -4 22 -9 22 -13 0 -25 -23 -133 -36 -169 -19
-51 -14 -61 20 -38 29 18 36 20 36 6 0 -5 9 -35 21 -66 16 -42 39 -74 90 -125
38 -38 71 -69 74 -69 3 0 5 8 6 18 0 10 3 12 6 5 15 -39 64 15 84 94 l11 42
23 -27 23 -27 -34 -23 c-19 -12 -34 -29 -34 -36 0 -19 39 -66 55 -66 15 0 45
-27 45 -40 0 -5 -13 -11 -30 -15 -36 -8 -80 -41 -80 -61 0 -16 16 -19 25 -4 3
6 11 10 16 10 5 0 -1 -14 -13 -31 -15 -21 -19 -33 -11 -36 8 -3 2 -24 -17 -66
-39 -83 -59 -164 -67 -269 -6 -81 -8 -90 -40 -124 -72 -79 -72 -177 0 -201
103 -34 407 -33 460 1 42 28 206 24 246 -5 26 -19 41 -21 138 -20 176 2 244
10 308 32 78 29 102 52 120 122 20 77 19 126 -4 163 -10 17 -28 68 -39 113
-12 45 -39 122 -62 172 -22 51 -40 93 -40 95 0 2 6 4 14 4 28 0 28 22 0 51
-15 16 -22 29 -16 29 26 0 10 44 -28 79 -30 27 -37 40 -30 51 15 23 12 40 -6
40 -12 0 -8 9 15 35 17 20 31 40 31 46 0 5 11 14 25 19 14 5 25 14 25 20 0 5
6 10 14 10 29 0 106 116 106 160 0 11 9 29 19 39 21 21 41 80 41 119 0 12 7
25 16 29 31 12 -6 133 -58 189 -19 21 -19 21 1 27 36 9 24 36 -26 58 -43 19
-46 22 -27 29 52 20 38 38 -51 65 -83 25 -115 42 -109 59 9 23 -38 47 -118 60
-44 7 -66 15 -55 19 30 11 18 27 -21 27 -20 0 -55 -10 -77 -21 l-40 -21 23 24
c28 30 29 48 1 22 -16 -14 -22 -16 -28 -5 -7 11 -14 9 -37 -8 -16 -11 -44 -24
-61 -27 -31 -6 -33 -5 -33 20 0 26 -22 36 -35 16 -3 -5 -15 -15 -27 -21 -16
-9 -19 -8 -13 2 8 12 7 12 -54 -7 -15 -5 -19 1 -25 35 -7 45 -16 50 -42 24z
m36 -39 c0 -14 -12 -42 -27 -62 -18 -24 -21 -31 -8 -20 11 9 46 23 78 31 33 9
67 23 78 33 24 22 26 -1 2 -28 -15 -17 -15 -18 18 -12 19 4 54 13 78 20 l45
13 -27 -24 c-18 -18 -38 -25 -69 -26 l-43 -1 51 -8 c29 -4 58 -11 65 -16 11
-6 12 -5 2 7 -11 13 -3 19 55 42 114 44 110 44 78 9 l-29 -32 34 10 c39 12 93
6 161 -18 49 -16 48 -31 -2 -32 -16 0 -1 -9 40 -24 36 -13 88 -33 115 -45 l50
-22 -45 5 c-25 3 -61 8 -80 11 -26 4 -23 1 12 -9 26 -8 69 -27 95 -42 27 -16
55 -32 63 -36 12 -5 12 -7 -3 -7 -21 -1 -107 38 -107 49 0 9 -79 30 -107 29
-10 0 -1 -7 20 -14 49 -18 99 -54 92 -66 -4 -5 -16 -9 -28 -10 l-22 0 23 -16
c12 -8 22 -19 22 -23 0 -3 17 -25 38 -48 39 -43 80 -117 69 -128 -3 -3 -15 0
-27 6 -26 14 -35 8 -22 -17 9 -17 7 -124 -3 -151 -3 -7 -9 -10 -15 -7 -6 3 -7
-1 -4 -9 4 -11 0 -16 -15 -16 -17 0 -20 -5 -15 -28 6 -31 -18 -63 -31 -42 -5
8 -12 6 -25 -5 -27 -25 -67 -4 -90 48 -22 50 -27 81 -39 237 -10 131 -42 226
-92 273 -32 30 -37 31 -59 17 -12 -7 -9 -13 13 -30 62 -49 86 -159 86 -391 -1
-126 20 -182 60 -159 10 5 21 -1 36 -24 24 -34 19 -56 -19 -87 -20 -16 -20
-17 10 -23 17 -4 43 -2 57 3 l27 11 -14 -29 c-15 -29 -69 -61 -103 -61 -14 0
-11 -5 12 -20 17 -11 38 -20 49 -20 16 0 17 -2 5 -17 -18 -21 -71 -43 -106
-43 -25 -1 -26 -2 -10 -14 9 -7 17 -16 17 -20 0 -14 -86 -46 -124 -46 -33 0
-37 -2 -26 -15 11 -13 8 -15 -13 -15 -14 0 -37 4 -52 10 -23 9 -25 8 -15 -9 5
-11 15 -22 22 -25 7 -4 -3 -4 -22 0 -19 3 -42 7 -50 8 -8 1 -22 5 -30 9 -8 3
-24 8 -35 10 l-20 4 20 7 c69 25 87 40 140 113 31 43 82 102 113 132 60 57 55
57 -16 0 -24 -19 -68 -66 -98 -106 -66 -87 -93 -109 -144 -118 -46 -8 -135 12
-153 34 -10 12 -9 13 10 3 12 -7 43 -12 70 -12 65 0 108 27 124 79 7 25 26 51
50 70 26 22 52 59 83 125 25 52 46 101 46 108 0 19 21 38 42 38 23 0 24 30 1
31 -29 2 -78 -3 -82 -7 -3 -2 1 -10 7 -16 7 -7 12 -20 12 -31 0 -15 -4 -14
-25 10 l-25 28 17 -32 c16 -30 17 -35 3 -60 -47 -84 -218 -91 -274 -11 -15 20
-14 23 15 40 21 13 29 24 25 35 -4 9 4 25 19 39 20 19 24 28 16 42 -19 35 -42
46 -97 46 -108 -2 -182 -92 -97 -118 12 -4 23 -17 25 -29 2 -14 14 -24 36 -31
39 -11 40 -25 6 -65 -52 -62 -146 -63 -179 -2 -8 14 -14 20 -15 13 0 -28 -18
0 -22 35 -5 35 5 73 25 98 4 6 21 31 38 58 36 55 98 95 166 107 42 7 44 8 13
8 -19 1 -48 -5 -65 -12 -29 -12 -31 -11 -53 21 -42 61 -98 63 -139 7 -26 -36
-48 -27 -64 26 -11 35 -10 46 5 77 28 59 13 46 -41 -35 -66 -98 -74 -121 -78
-212 -3 -70 -19 -130 -35 -130 -11 0 -22 84 -14 106 7 18 7 18 -16 -1 l-23
-20 6 40 c4 33 4 36 -5 18 -6 -13 -15 -23 -21 -23 -13 0 1 49 24 81 27 38 24
47 -6 19 -14 -13 -28 -21 -31 -17 -8 8 16 46 70 112 l41 50 -54 -45 c-55 -45
-94 -97 -85 -112 3 -4 0 -8 -7 -8 -7 0 -9 11 -5 35 l7 35 -33 -6 -33 -6 35 22
c53 33 109 90 132 134 19 37 19 38 1 31 -10 -4 -29 -9 -43 -12 -23 -3 -24 -3
-6 9 10 7 39 29 65 49 25 20 62 44 81 54 l35 18 -30 13 -30 13 43 1 c44 0 54
12 25 30 -15 9 -13 10 12 6 17 -2 43 -10 59 -16 l29 -11 -34 -36 -34 -36 40
30 c22 17 58 36 80 42 l40 10 -42 -5 c-41 -5 -42 -5 -48 28 -6 31 7 88 20 88
3 0 28 -16 56 -35 28 -19 55 -35 59 -35 4 0 10 17 13 37 7 41 74 146 88 137 5
-3 9 -16 9 -30z m-175 -577 c16 -5 15 -5 -4 -4 -14 1 -26 9 -28 17 -3 10 -2
11 4 4 4 -7 17 -14 28 -17z m-46 -9 c12 -15 11 -18 -3 -18 -10 0 -16 8 -16 22
0 12 1 19 3 17 1 -2 9 -12 16 -21z m244 -45 c-7 -2 -19 -2 -25 0 -7 3 -2 5 12
5 14 0 19 -2 13 -5z m581 -242 c3 -5 -3 -11 -13 -14 -14 -3 -18 -1 -14 9 6 16
19 18 27 5z m-372 -26 c0 -5 -5 -11 -11 -13 -6 -2 -11 4 -11 13 0 9 5 15 11
13 6 -2 11 -8 11 -13z m-30 -47 c-9 -9 -12 -7 -12 12 0 19 3 21 12 12 9 -9 9
-15 0 -24z m-36 -54 c-7 -73 -19 -98 -53 -113 -45 -20 -82 -13 -114 21 -44 49
-38 123 12 141 22 7 39 -11 39 -42 0 -25 1 -25 16 6 15 31 49 51 88 52 17 1
18 -4 12 -65z m-231 -26 l-7 -45 -38 41 -39 41 32 16 c45 22 61 6 52 -53z
m-75 5 c17 -16 43 -50 58 -78 16 -30 39 -55 57 -64 l29 -14 -24 -9 c-24 -9
-117 -4 -128 7 -3 3 3 12 14 20 18 14 17 14 -13 9 -33 -6 -93 11 -93 27 0 4
10 15 22 23 22 15 21 16 -27 16 -36 0 -55 6 -72 22 -30 28 -29 38 6 38 16 0
44 7 62 15 50 21 75 18 109 -12z m744 -84 c31 -25 33 -39 5 -39 -20 0 -20 -1
6 -31 27 -33 27 -51 -1 -28 -11 9 -6 -8 14 -46 16 -33 40 -91 52 -130 27 -87
39 -260 20 -305 -7 -16 -15 -30 -18 -30 -4 0 -28 21 -54 46 -43 44 -49 46 -75
36 -15 -6 -57 -11 -93 -10 -77 1 -126 -20 -185 -81 -27 -27 -51 -42 -76 -46
-29 -5 -40 -13 -47 -34 -14 -39 -50 -47 -64 -15 -13 28 -25 31 -31 6 -3 -11
-5 -7 -6 10 -1 27 -21 51 -21 26 0 -8 -5 -19 -11 -25 -8 -8 -20 0 -43 30 -17
23 -53 57 -80 74 -51 35 -188 83 -236 83 -16 0 -32 5 -36 11 -5 8 11 9 57 4
l63 -7 -39 48 c-21 27 -51 64 -66 81 l-28 33 15 52 c9 29 27 73 41 97 22 38
23 43 7 37 -17 -7 -17 -6 0 13 9 10 31 25 47 31 39 16 26 33 -20 26 -34 -6
-35 -5 -17 9 11 8 36 15 55 15 31 0 39 -6 59 -38 30 -48 101 -96 174 -117 37
-11 62 -24 72 -40 14 -21 24 -25 69 -25 71 1 129 15 147 38 9 10 46 33 83 52
70 34 167 126 167 158 0 21 29 52 50 52 10 0 29 -9 44 -21z m-534 -88 c0 -13
-41 -41 -60 -41 -12 1 -10 4 5 17 19 15 19 15 -10 9 -29 -7 -29 -7 -10 8 22
17 75 22 75 7z m180 -116 c0 -31 -3 -35 -37 -44 -46 -13 -140 -14 -147 -2 -3
5 13 6 37 4 53 -6 127 13 127 32 0 8 -8 15 -17 15 -14 0 -12 4 7 14 14 8 26
14 28 15 1 1 2 -15 2 -34z m-430 -377 c25 -10 55 -29 68 -41 49 -45 86 -153
63 -181 -18 -22 -77 -28 -138 -16 l-55 12 6 41 c4 30 3 38 -4 27 -16 -24 -12
-68 8 -79 29 -17 -85 -13 -118 4 -35 18 -47 56 -31 93 11 26 11 26 -4 7 -10
-12 -15 -35 -13 -59 4 -51 -14 -57 -52 -16 -17 18 -30 28 -30 23 0 -5 6 -15
13 -22 10 -11 9 -13 -3 -9 -22 7 -24 65 -4 96 16 26 16 26 -1 11 -9 -9 -21
-32 -26 -50 -8 -33 -8 -32 -5 8 7 73 77 146 164 169 54 15 98 10 162 -18z
m702 18 c87 -26 158 -106 158 -179 0 -42 -20 -43 -21 0 l-2 38 -6 -40 c-8 -48
-17 -65 -36 -65 -9 0 -12 6 -8 18 4 11 0 10 -11 -5 -10 -13 -28 -23 -42 -23
-22 0 -24 4 -24 43 0 37 -29 107 -45 107 -2 0 4 -15 15 -32 40 -67 14 -138
-51 -138 -16 0 -28 4 -25 9 3 4 -3 16 -14 26 -11 10 -21 28 -21 39 -1 16 -2
17 -6 4 -2 -9 1 -26 6 -37 10 -18 7 -20 -33 -26 -54 -9 -86 6 -86 40 0 14 -5
25 -10 25 -6 0 -8 -11 -4 -26 5 -20 3 -25 -7 -22 -10 3 -14 22 -14 60 0 44 6
63 29 97 60 86 155 118 258 87z"/>
<path d="M1390 2050 c-11 -8 -8 -9 13 -4 22 5 27 3 27 -13 0 -10 -5 -24 -11
-30 -7 -7 2 -12 33 -16 27 -4 49 -14 61 -28 l18 -23 -7 30 c-9 38 -9 38 -50
37 -22 -1 -34 3 -31 10 6 17 -11 47 -26 47 -7 0 -19 -5 -27 -10z"/>
<path d="M1295 1881 c-30 -13 -58 -48 -49 -62 5 -9 10 -8 18 3 6 8 20 20 31
27 l20 13 -20 -7 c-16 -5 -18 -4 -7 7 7 7 33 13 60 12 32 -1 41 1 27 7 -26 10
-55 10 -80 0z"/>
<path d="M819 1841 c8 -5 10 -14 6 -22 -6 -9 -3 -11 9 -6 10 4 20 7 24 7 3 0
-3 7 -14 15 -10 8 -23 14 -29 15 -5 0 -4 -4 4 -9z"/>
<path d="M1244 1744 c-18 -42 -10 -95 17 -120 14 -12 19 -13 19 -4 0 9 8 6 23
-8 26 -24 58 -28 106 -11 24 9 39 9 58 0 36 -17 40 -7 9 29 -14 17 -26 37 -26
45 0 7 -13 27 -29 44 -39 41 -82 42 -122 2 -18 -19 -29 -40 -29 -58 0 -22 -2
-25 -10 -13 -14 22 -12 74 5 96 17 23 19 34 4 34 -5 0 -17 -16 -25 -36z m200
-106 c-10 -16 -22 -7 -17 13 4 15 8 17 14 8 4 -7 5 -17 3 -21z"/>
<path d="M835 1734 c-14 -15 -22 -31 -18 -37 3 -5 12 2 20 16 7 15 25 29 41
33 46 10 48 12 14 13 -23 1 -40 -7 -57 -25z"/>
<path d="M1230 1585 c30 -7 56 -12 58 -10 6 6 -62 25 -87 24 -16 0 -4 -6 29
-14z"/>
<path d="M1767 1569 c-9 -6 -17 -14 -17 -19 0 -16 37 -11 43 5 8 19 -4 26 -26
14z"/>
<path d="M1770 1479 c0 -5 5 -7 10 -4 6 3 10 8 10 11 0 2 -4 4 -10 4 -5 0 -10
-5 -10 -11z"/>
<path d="M841 729 c-2 -43 65 -109 111 -109 7 0 -6 9 -29 21 -50 25 -63 39
-73 82 -7 29 -8 30 -9 6z"/>
<path d="M1670 724 c8 -8 19 -36 26 -62 7 -26 13 -37 13 -25 1 30 -28 103 -41
103 -6 0 -5 -7 2 -16z"/>
<path d="M859 595 c23 -43 74 -85 88 -72 2 3 -5 8 -16 12 -11 3 -35 23 -52 43
-17 20 -26 28 -20 17z"/>
<path d="M1080 577 c0 -28 72 -132 98 -142 9 -3 3 8 -15 27 -17 18 -43 53 -57
78 -14 25 -26 41 -26 37z"/>
<path d="M1384 315 c-3 -8 -4 -20 -2 -27 3 -7 7 -1 10 15 6 29 1 36 -8 12z"/>
</g>
</svg>
