<?xml version="1.0" standalone="no"?>
<!DOCTYPE svg PUBLIC "-//W3C//DTD SVG 20010904//EN"
 "http://www.w3.org/TR/2001/REC-SVG-20010904/DTD/svg10.dtd">
<svg version="1.0" xmlns="http://www.w3.org/2000/svg"
 width="316.000000pt" height="315.000000pt" viewBox="0 0 316.000000 315.000000"
 preserveAspectRatio="xMidYMid meet">

<g transform="translate(0.000000,315.000000) scale(0.100000,-0.100000)"
fill="#000000" stroke="none">
<path d="M1372 2810 c-50 -60 -82 -121 -82 -157 0 -18 -4 -33 -8 -33 -12 0
-83 53 -106 79 -28 31 -42 26 -66 -25 -16 -33 -21 -56 -17 -85 3 -21 4 -39 4
-39 -1 0 -26 9 -55 20 -58 22 -112 19 -133 -6 -6 -8 -8 -14 -3 -14 5 -1 -6 -7
-23 -15 -38 -16 -41 -28 -13 -48 18 -13 15 -17 -53 -74 -40 -34 -89 -71 -110
-83 -52 -31 -48 -46 16 -59 l30 -6 -61 -62 c-34 -34 -83 -73 -110 -87 -50 -26
-79 -51 -65 -59 4 -2 21 -7 38 -11 l29 -7 -32 -21 c-37 -23 -34 -38 9 -38 17
0 28 -4 25 -8 -2 -4 -12 -50 -21 -102 -9 -52 -25 -114 -35 -138 -17 -38 -17
-44 -4 -49 9 -3 28 4 44 15 30 23 40 20 40 -12 0 -29 51 -133 86 -177 50 -62
157 -155 162 -141 3 9 7 10 17 2 27 -22 105 97 105 162 0 30 17 28 42 -5 23
-31 24 -33 6 -49 -10 -10 -25 -18 -33 -18 -8 0 -19 -9 -25 -20 -23 -42 39
-120 95 -120 8 0 15 -4 15 -9 0 -5 2 -15 5 -23 4 -9 -11 -19 -44 -31 -54 -19
-109 -73 -92 -90 7 -7 14 -7 23 0 7 5 21 13 32 17 13 4 10 -3 -13 -29 -34 -39
-36 -46 -20 -62 8 -8 4 -23 -12 -54 -57 -113 -99 -292 -99 -427 0 -75 0 -75
-39 -108 -21 -18 -51 -59 -66 -91 -45 -95 -21 -166 63 -191 96 -29 386 -42
504 -23 32 6 71 20 87 32 27 20 40 21 164 21 129 -1 136 -2 162 -26 33 -31 88
-38 250 -32 66 3 138 5 161 5 93 0 254 54 298 100 27 28 39 71 55 194 7 62 -5
119 -31 140 -8 7 -23 50 -32 97 -19 92 -65 219 -115 318 -17 34 -31 64 -31 67
0 3 11 5 25 5 42 0 40 25 -7 69 -38 36 -41 41 -20 41 39 0 27 39 -31 96 -48
46 -52 53 -40 70 20 28 16 54 -8 54 -19 0 -18 3 13 38 18 20 40 52 47 70 10
24 18 31 32 27 12 -4 23 1 31 14 7 12 18 21 25 21 29 0 133 157 133 202 0 9
11 33 24 53 27 40 51 107 61 173 5 30 11 42 20 38 22 -8 23 3 9 65 -16 68 -51
142 -89 188 l-27 31 32 0 c28 0 31 3 25 23 -8 26 -32 47 -54 47 -22 1 -71 39
-50 40 22 0 55 38 43 49 -5 5 -40 18 -79 31 -38 12 -94 31 -123 42 -46 18 -52
23 -50 47 3 22 -4 29 -42 48 -25 12 -65 24 -90 28 -91 12 -105 16 -87 27 9 5
17 16 17 23 0 25 -85 19 -144 -11 l-51 -25 34 35 c31 32 32 36 15 36 -12 0
-29 -9 -40 -21 l-18 -20 -8 21 c-8 21 -8 21 -37 -8 -17 -16 -43 -32 -59 -35
-16 -3 -41 -9 -54 -12 -23 -6 -24 -4 -21 22 6 35 -22 67 -33 39 -4 -9 -19 -23
-35 -31 -36 -19 -45 -19 -29 0 18 22 -2 19 -50 -5 l-40 -20 0 25 c0 33 -27 85
-43 85 -6 0 -27 -18 -45 -40z m62 -12 c11 -41 6 -58 -20 -81 -14 -12 -33 -35
-41 -52 l-16 -30 35 31 c26 23 56 36 111 48 42 10 87 26 101 37 33 26 34 6 1
-26 -13 -14 -19 -25 -12 -25 21 1 141 27 160 35 27 11 20 -10 -8 -25 -14 -7
-25 -17 -25 -22 0 -4 -28 -9 -62 -10 l-63 -1 65 -7 c36 -3 74 -10 85 -15 20
-8 20 -7 1 7 -19 15 -16 16 39 33 33 9 75 25 95 35 19 9 46 21 60 25 24 7 24
6 -7 -26 l-32 -34 97 0 c78 -1 109 -5 157 -24 52 -21 56 -25 37 -32 -12 -5
-29 -6 -37 -3 -8 4 -32 3 -53 -2 l-37 -7 55 -8 c30 -5 109 -31 175 -59 129
-55 130 -55 -25 -36 l-45 6 51 -13 c52 -14 211 -107 182 -107 -22 0 -79 25
-108 48 -32 24 -114 52 -154 52 -27 0 -24 -3 25 -24 67 -27 129 -64 129 -77 0
-5 -12 -11 -27 -15 -16 -3 -32 -7 -38 -8 -5 -2 5 -10 23 -20 18 -9 32 -22 31
-29 -2 -7 16 -31 38 -55 45 -47 121 -182 103 -182 -6 0 -25 7 -41 16 -40 20
-45 14 -27 -33 17 -47 8 -181 -14 -198 -8 -5 -17 -18 -21 -27 -3 -10 -13 -18
-22 -18 -10 0 -15 -10 -15 -34 0 -19 -3 -41 -6 -50 -8 -20 -33 -21 -40 -1 -5
12 -9 11 -24 -7 -16 -21 -19 -21 -56 -7 -71 27 -100 115 -114 349 -8 145 -25
235 -53 285 -7 11 -12 27 -12 36 0 9 -20 37 -44 64 -39 43 -46 46 -77 40 -19
-3 -34 -8 -34 -11 0 -2 16 -19 35 -36 85 -74 103 -150 111 -473 4 -161 8 -201
19 -208 8 -4 15 -16 15 -26 0 -26 23 -33 49 -15 19 14 22 12 46 -36 23 -45 24
-53 12 -76 -7 -14 -26 -33 -41 -43 l-28 -19 40 -7 c22 -3 56 -2 76 3 43 12 45
4 10 -38 -33 -39 -74 -60 -115 -60 -32 0 -32 0 -14 -20 10 -11 36 -25 57 -32
21 -6 38 -15 38 -19 0 -5 -19 -21 -41 -36 -32 -21 -53 -27 -95 -27 -41 0 -51
-3 -43 -13 6 -7 20 -15 31 -19 18 -5 19 -7 3 -24 -22 -24 -106 -52 -161 -54
-40 -1 -41 -2 -27 -18 15 -17 13 -18 -25 -18 -22 0 -52 4 -66 10 -34 12 -33
-3 0 -29 l27 -21 -29 0 c-16 0 -45 10 -64 21 -24 15 -30 17 -21 5 16 -20 4
-20 -29 -1 -14 8 -35 14 -47 15 -13 0 -23 5 -23 10 0 6 11 10 25 10 33 0 94
31 121 62 11 12 47 60 79 106 56 78 111 136 200 210 38 32 38 32 7 15 -68 -37
-163 -126 -231 -216 -38 -51 -77 -100 -88 -109 -28 -26 -88 -48 -128 -48 -57
0 -162 30 -182 52 l-18 21 35 -19 c52 -27 144 -25 197 5 42 24 73 70 73 108 0
11 24 40 55 67 46 39 65 67 110 159 30 62 61 132 68 157 13 43 15 45 47 42 19
-1 31 0 27 4 -4 4 -2 13 3 19 14 17 -44 28 -98 19 -39 -6 -40 -7 -27 -28 7
-11 16 -32 20 -46 7 -23 3 -21 -35 15 -38 35 -41 36 -23 10 33 -49 35 -68 11
-105 -30 -44 -89 -73 -158 -78 -80 -6 -137 13 -184 60 l-40 39 40 23 c30 17
39 28 39 48 0 15 12 37 28 53 32 33 33 44 6 78 -43 56 -161 56 -247 0 -63 -41
-65 -93 -6 -115 24 -8 34 -18 34 -33 0 -31 19 -45 62 -45 30 0 38 -4 38 -18 0
-30 -54 -97 -93 -115 -72 -35 -169 -9 -183 49 -6 25 -8 26 -20 9 -13 -17 -14
-16 -24 9 -19 51 -11 87 37 172 79 142 145 194 271 215 68 11 137 3 227 -26
20 -7 20 -7 0 6 -27 17 -121 39 -170 39 -38 0 -117 -17 -157 -35 -16 -6 -18
-1 -20 41 -1 46 -2 47 -5 10 l-4 -39 -19 31 c-25 41 -73 65 -111 57 -17 -4
-43 -24 -65 -50 -19 -24 -41 -42 -48 -39 -20 8 -50 82 -49 121 1 20 10 47 20
62 33 44 35 51 20 51 -9 0 -29 -25 -46 -55 -17 -30 -47 -75 -65 -100 -49 -64
-70 -134 -71 -241 -1 -70 -6 -99 -21 -124 -11 -19 -24 -35 -30 -37 -16 -5 -26
99 -14 132 11 28 3 27 -32 -3 -16 -13 -18 -13 -18 0 0 8 6 36 14 61 8 26 12
47 10 47 -2 0 -13 -18 -24 -40 -19 -38 -40 -53 -40 -30 0 16 39 91 67 128 31
41 25 40 -27 -3 -40 -33 -60 -43 -60 -29 0 8 79 116 127 174 39 46 36 45 -55
-31 -65 -53 -112 -126 -91 -140 11 -7 10 -9 -5 -9 -17 0 -18 6 -13 51 6 45 4
50 -11 44 -9 -5 -30 -10 -47 -12 -24 -4 -18 2 34 34 72 43 143 118 171 181 10
23 18 42 16 42 -2 0 -17 -7 -34 -16 -18 -8 -42 -14 -54 -12 -21 3 -20 5 12 22
19 10 56 36 82 58 26 22 71 52 99 68 l51 28 -37 12 c-32 10 -35 14 -21 22 9 5
35 7 57 3 39 -7 40 -6 30 13 -6 11 -16 23 -23 25 -7 3 -3 6 8 6 12 1 37 -5 55
-13 19 -7 42 -16 51 -19 14 -5 8 -16 -37 -60 -50 -49 -70 -87 -45 -87 5 0 7 6
4 14 -6 15 60 82 104 105 15 8 52 18 82 22 l55 7 -64 -1 c-55 0 -66 2 -72 19
-12 31 -10 72 6 110 l14 34 47 -35 c26 -20 64 -45 86 -56 l38 -19 0 40 c0 46
28 106 74 162 36 44 42 46 50 16z m-291 -790 c17 -27 17 -28 -3 -28 -16 0 -20
7 -20 32 0 17 1 29 3 27 2 -2 11 -16 20 -31z m59 2 c6 0 9 -3 6 -6 -9 -8 -48
14 -48 27 0 6 7 3 16 -5 8 -9 20 -16 26 -16z m273 -60 c13 -5 14 -9 5 -9 -8 0
-24 4 -35 9 -13 5 -14 9 -5 9 8 0 24 -4 35 -9z m762 -327 c2 -6 -7 -13 -21
-15 -22 -4 -24 -3 -15 14 11 20 30 20 36 1z m-490 -19 c3 -8 -1 -23 -10 -32
-15 -14 -17 -14 -23 1 -8 21 1 47 16 47 6 0 13 -7 17 -16z m-39 -46 c8 -8 8
-17 0 -31 -8 -16 -12 -17 -19 -6 -11 18 -12 49 -1 49 4 0 13 -5 20 -12z m-53
-95 c-4 -58 -13 -96 -24 -113 -39 -55 -135 -77 -178 -41 -13 11 -23 22 -23 27
0 4 -8 13 -17 20 -35 25 -13 156 28 169 41 13 59 -3 60 -53 1 -46 1 -46 11
-17 15 44 45 72 87 83 66 18 63 21 56 -75z m-308 38 c8 -13 10 -41 6 -85 l-6
-65 -27 38 c-15 21 -43 50 -61 64 l-34 27 26 0 c15 0 37 9 50 20 30 24 32 24
46 1z m-101 -65 c22 -18 57 -65 78 -104 31 -56 48 -76 79 -91 l39 -20 -43 -11
c-43 -12 -132 -7 -158 9 -11 7 -7 13 15 25 l29 17 -32 -6 c-35 -7 -99 7 -127
28 -18 13 -16 15 18 36 45 28 47 42 2 29 -45 -14 -98 -3 -130 27 -41 38 -34
55 20 55 25 0 55 5 67 12 20 11 68 25 93 27 6 1 28 -14 50 -33z m980 -111 c19
-14 38 -34 44 -45 9 -17 7 -18 -27 -13 l-37 6 41 -48 c45 -53 48 -67 9 -41
-25 16 -25 16 -16 -8 5 -14 21 -49 36 -78 55 -109 81 -206 93 -348 10 -109 0
-206 -24 -229 -14 -15 -20 -11 -73 47 -62 66 -66 68 -108 52 -15 -6 -70 -12
-123 -13 -117 -2 -152 -17 -234 -99 -48 -48 -66 -59 -105 -66 -43 -7 -49 -11
-66 -50 -16 -34 -25 -42 -46 -42 -19 0 -28 7 -37 30 -12 31 -33 41 -33 16 0
-29 -15 -23 -16 5 -1 30 -14 52 -20 34 -2 -5 -14 -26 -26 -45 l-23 -35 -3 31
c-4 41 -56 102 -127 149 -84 56 -266 115 -326 107 -9 -2 -22 4 -29 13 -11 13
-9 15 13 15 14 0 49 -5 77 -11 28 -6 54 -9 57 -6 3 3 -28 45 -68 92 -110 129
-105 119 -90 173 14 57 66 170 88 194 18 20 12 23 -20 8 -12 -6 -4 5 18 25 21
20 49 38 62 41 13 4 23 11 23 16 0 11 -81 6 -115 -7 -15 -6 -14 -3 5 12 31 25
104 46 129 38 11 -3 22 -16 25 -28 3 -12 21 -41 41 -64 42 -49 171 -118 239
-128 36 -6 46 -12 50 -31 10 -38 40 -47 141 -42 100 5 145 21 160 56 5 12 14
22 19 22 30 0 164 78 215 126 56 51 111 137 97 151 -7 8 43 41 63 42 8 1 29
-10 47 -24z m-698 -115 c6 0 12 -3 12 -7 0 -11 -61 -50 -90 -57 -24 -7 -24 -6
5 20 19 17 23 24 12 20 -11 -3 -31 -9 -45 -12 -26 -6 -26 -5 3 11 17 9 35 21
40 26 6 6 19 8 30 5 11 -3 26 -6 33 -6z m-11 -162 c-2 -13 -4 -5 -4 17 -1 22
1 32 4 23 2 -10 2 -28 0 -40z m253 6 c0 -41 -3 -46 -33 -59 -50 -21 -188 -30
-210 -13 -15 11 -4 13 76 13 72 0 99 4 120 18 35 23 35 47 0 48 -23 1 -24 2
-6 6 12 2 27 11 33 19 18 21 20 18 20 -32z m-582 -496 c109 -40 192 -156 192
-268 0 -47 -28 -61 -119 -61 -58 0 -149 21 -144 32 10 26 13 85 6 102 -8 18
-10 17 -9 -13 0 -19 -3 -49 -7 -67 -7 -28 -5 -33 20 -47 28 -15 28 -15 -31
-16 -169 -1 -226 86 -127 194 25 27 25 28 3 17 -51 -27 -79 -121 -52 -172 9
-17 7 -19 -17 -19 -36 1 -59 18 -78 61 l-16 34 5 -38 c4 -33 3 -37 -9 -27 -18
15 -20 72 -4 103 6 12 21 33 33 46 l21 24 -27 -17 c-25 -16 -51 -58 -61 -101
-4 -16 -5 -14 -6 6 -2 40 25 96 71 145 100 109 213 135 356 82z m973 5 c97
-43 169 -137 169 -219 0 -22 -7 -49 -15 -60 -14 -18 -15 -16 -9 21 3 22 1 51
-5 65 -11 25 -11 25 -9 -5 2 -61 -3 -86 -22 -105 -25 -25 -45 -26 -35 -2 18
42 16 55 -4 24 -23 -35 -61 -58 -84 -49 -11 4 -13 17 -10 51 7 54 -24 125 -65
152 l-27 17 27 -29 c84 -90 58 -216 -44 -212 -23 1 -37 3 -30 6 7 2 1 14 -17
32 -18 19 -32 47 -39 77 -8 42 -10 44 -11 15 0 -18 5 -48 13 -67 18 -43 13
-47 -66 -48 -78 -2 -91 13 -86 100 3 44 1 60 -7 52 -5 -5 -10 -39 -10 -74 0
-62 0 -63 -18 -47 -16 14 -18 28 -15 78 6 104 84 199 195 240 52 20 165 13
224 -13z"/>
<path d="M1800 2669 c-19 -11 -28 -19 -20 -19 9 0 25 7 36 15 12 8 25 11 29 7
5 -4 5 -1 1 6 -4 6 -8 11 -9 11 -1 -1 -18 -10 -37 -20z"/>
<path d="M1850 2644 c0 -10 -7 -25 -16 -35 -15 -16 -12 -18 42 -25 40 -5 65
-14 81 -30 13 -13 23 -19 23 -15 0 5 -7 14 -15 21 -11 9 -12 16 -4 26 8 10 5
15 -15 20 -15 3 -40 4 -57 2 -27 -4 -30 -3 -25 18 4 13 2 26 -4 29 -5 3 -10
-2 -10 -11z"/>
<path d="M1649 2435 c-27 -15 -41 -36 -44 -68 -2 -15 3 -13 29 10 17 15 33 30
36 32 3 2 -3 1 -12 -2 -29 -10 -20 1 14 19 22 12 45 15 77 10 32 -4 41 -3 31
4 -22 14 -101 11 -131 -5z"/>
<path d="M1042 2393 c14 -4 16 -8 8 -24 -12 -22 -7 -24 19 -7 16 10 17 14 6
25 -8 7 -22 12 -32 12 -16 -1 -17 -2 -1 -6z"/>
<path d="M1605 2280 c-21 -41 -19 -118 5 -157 23 -38 40 -43 40 -10 1 21 2 21
16 -5 26 -49 82 -62 148 -34 33 14 82 11 92 -5 3 -5 12 -9 20 -9 21 0 17 28
-7 42 -11 7 -34 38 -49 69 -36 71 -71 99 -120 99 -61 0 -119 -61 -121 -127 0
-26 -1 -25 -15 11 -16 44 -6 104 21 126 19 16 19 30 0 30 -8 0 -21 -13 -30
-30z m251 -162 c-15 -10 -19 -3 -10 24 7 22 7 22 14 3 4 -11 3 -23 -4 -27z"/>
<path d="M1082 2270 c-32 -20 -53 -55 -51 -88 0 -10 6 -5 14 13 17 40 42 62
91 79 38 14 38 15 9 15 -16 1 -45 -8 -63 -19z"/>
<path d="M2283 2033 c-16 -6 -17 -29 -3 -38 18 -11 50 6 50 26 0 19 -19 24
-47 12z"/>
<path d="M1946 1907 c16 -19 30 -33 32 -31 7 5 -30 52 -45 58 -8 4 -2 -9 13
-27z"/>
<path d="M2285 1921 c-3 -5 0 -13 6 -17 6 -3 15 -1 19 6 4 7 15 10 25 7 9 -4
14 -3 10 3 -8 13 -52 13 -60 1z"/>
<path d="M2171 906 c12 -20 25 -63 29 -94 l7 -57 2 48 c1 52 -16 104 -43 126
-14 11 -12 6 5 -23z"/>
<path d="M1070 908 c0 -15 12 -40 26 -58 27 -31 92 -70 116 -70 7 1 -10 12
-39 26 -59 29 -70 40 -89 91 -12 34 -13 35 -14 11z"/>
<path d="M1090 754 c0 -30 55 -85 104 -104 38 -14 32 -4 -10 16 -20 10 -49 35
-65 57 -16 22 -29 36 -29 31z"/>
<path d="M1390 705 c0 -22 61 -112 101 -150 l43 -40 -47 55 c-25 31 -57 76
-71 100 -14 25 -26 41 -26 35z"/>
</g>
</svg>
